<?xml version="1.0" encoding="utf-8"?>
<!-- Generator: Adobe Illustrator 21.0.0, SVG Export Plug-In . SVG Version: 6.00 Build 0)  -->
<svg version="1.1" id="Layer_1" xmlns="http://www.w3.org/2000/svg" xmlns:xlink="http://www.w3.org/1999/xlink" x="0px" y="0px"
	 viewBox="0 0 13.2 13.2" style="enable-background:new 0 0 13.2 13.2;" xml:space="preserve">
<g>
	<g>
		<path d="M10.2,3.6C9.9,3.6,9.6,3.3,9.6,3V2c0-0.3,0.2-0.5,0.5-0.5h1c0.3,0,0.5,0.2,0.5,0.5v1c0,0.3-0.2,0.5-0.5,0.5L10.2,3.6
			L10.2,3.6z"/>
		<path d="M6.6,4.7c-0.4,0-0.7,0.1-1,0.3c0.1,0,0.2,0,0.3,0c0.5,0,1,0.4,1,1c0,0.5-0.4,1-1,1c-0.5,0-1-0.4-1-1c0-0.1,0-0.2,0-0.3
			C4.7,6,4.6,6.3,4.6,6.7c0,1.1,0.9,1.9,1.9,1.9c1.1,0,1.9-0.9,1.9-1.9C8.5,5.5,7.7,4.7,6.6,4.7L6.6,4.7z"/>
		<path d="M6.6,3.6c1.7,0,3,1.4,3,3c0,1.7-1.4,3-3,3c-1.7,0-3-1.4-3-3C3.6,4.9,4.9,3.6,6.6,3.6 M6.6,2.5c-2.2,0-4.1,1.8-4.1,4.1
			c0,2.2,1.8,4.1,4.1,4.1c2.2,0,4.1-1.8,4.1-4.1C10.7,4.4,8.8,2.5,6.6,2.5L6.6,2.5z"/>
		<path d="M10.7,0H2.5C1.1,0,0,1.1,0,2.5v8.2c0,1.4,1.1,2.5,2.5,2.5h8.2c1.4,0,2.5-1.1,2.5-2.5V2.5C13.2,1.1,12.1,0,10.7,0L10.7,0z
			 M12.2,4.6H8.9c0.5,0.5,0.8,1.2,0.8,2c0,1.7-1.4,3-3,3c-1.7,0-3-1.4-3-3c0-0.8,0.3-1.5,0.8-2H1V2.5C1,1.7,1.7,1,2.5,1h8.2
			c0.8,0,1.5,0.7,1.5,1.5V4.6z"/>
	</g>
</g>
</svg>
