<?xml version="1.0" encoding="utf-8"?>
<!-- Generator: Adobe Illustrator 21.0.0, SVG Export Plug-In . SVG Version: 6.00 Build 0)  -->
<svg version="1.1" id="Layer_1" xmlns="http://www.w3.org/2000/svg" xmlns:xlink="http://www.w3.org/1999/xlink" x="0px" y="0px"
	 viewBox="0 0 28 28" style="enable-background:new 0 0 28 28;" xml:space="preserve">
<g id="_x38_4M0Jl.tif">
	<g>
		<path d="M0,2.2c0-0.3,0-0.6,0-0.9C0.2,0.7,0.7,0.2,1.3,0c1.5,0,2.9,0,4.4,0c0.5,0.2,0.8,0.5,1.1,0.9C6.9,1.2,7,1.5,7.1,1.8
			c0.2,1,0.3,2,0.5,3c0,0.3,0.1,0.4,0.4,0.4c6.1,0,12.1,0,18.2,0c0.9,0,1.6,0.4,1.9,1.2c0,0.3,0,0.5,0,0.8c0,0.1-0.1,0.2-0.1,0.3
			c-0.8,3.8-1.6,7.5-2.4,11.3c-0.1,0.6-0.3,1.1-0.6,1.6c-0.3,0.4-0.7,0.6-1.2,0.6c-5.3,0-10.6,0-15.9,0c-0.5,0-0.9-0.2-1.2-0.6
			c-0.3-0.3-0.4-0.7-0.5-1.1c-0.2-1.1-0.3-2.2-0.5-3.3c-0.3-2.1-0.6-4.3-1-6.4C4.3,7.7,4,5.7,3.8,3.8c0-0.2-0.1-0.3-0.3-0.2
			c-0.5,0-1,0-1.5,0c-0.2,0-0.4,0-0.6,0C0.6,3.3,0.2,2.8,0,2.2z M10.6,12.3c0.1,0.1,0.1,0.1,0.1,0.2c1.6,1.6,3.2,3.2,4.8,4.9
			c0.2,0.2,0.3,0.1,0.4,0c1.6-1.6,3.2-3.2,4.8-4.8c0.1-0.1,0.1-0.1,0.1-0.2c-0.1,0-0.2,0-0.2,0c-0.9,0-1.9,0-2.8,0
			c-0.2,0-0.3-0.1-0.3-0.3c0-0.9,0-1.9,0-2.8c0-0.2-0.1-0.3-0.3-0.3c-0.9,0-1.8,0-2.8,0c-0.4,0-0.4,0-0.4,0.4c0,0.9,0,1.9,0,2.8
			c0,0.3-0.1,0.4-0.4,0.4c-0.7,0-1.4,0-2.2,0C11.2,12.3,10.9,12.3,10.6,12.3z"/>
		<path d="M24.5,25.4c0.1,1.3-1.1,2.7-2.7,2.6c-1.4,0-2.6-1.2-2.7-2.5c-0.1-1.5,1.2-2.9,2.8-2.8C23.4,22.8,24.6,24,24.5,25.4z"/>
		<path d="M12.3,25.4c0,1.5-1.2,2.6-2.6,2.6c-1.4,0-2.7-1.2-2.7-2.7c0-1.4,1.2-2.6,2.7-2.6C11,22.7,12.3,23.9,12.3,25.4z"/>
	</g>
</g>
</svg>
