<?xml version="1.0" encoding="utf-8"?>
<!-- Generator: Adobe Illustrator 21.0.0, SVG Export Plug-In . SVG Version: 6.00 Build 0)  -->
<svg version="1.1" id="Layer_1" xmlns="http://www.w3.org/2000/svg" xmlns:xlink="http://www.w3.org/1999/xlink" x="0px" y="0px"
	 viewBox="0 0 23 49.3" style="enable-background:new 0 0 23 49.3;" xml:space="preserve">
<g>
	<path d="M19.5,31.7c-1.7,4.2-6.2,6.4-10.4,5.1c-3-0.9-5.1-3-6-6c-0.4-1.3-1.2-1.3-2.2-1.2c-1.2,0.1-0.9,1-0.9,1.7c0,3,0,6,0,9
		c0,2.2,0.9,3.1,3,3.1c5.6,0,11.3,0,16.9,0c1.3,0,2.3-0.5,2.9-1.6c0-4,0-8.1,0-12.1C20.4,29.4,20.4,29.4,19.5,31.7z"/>
	<path d="M6.5,9.4c0.9,0,1.4-0.2,1.3-1.2c-0.1-1.5,0-2.9,0-4.4C7.8,3,8.1,2.6,9,2.6c1.7,0,3.5,0,5.2,0c0.8,0,1.1,0.3,1.1,1.1
		c0,1.5,0,3,0,4.5c0,1,0.5,1.2,1.4,1.2c0.9,0,1.4-0.2,1.3-1.2c-0.1-1.6-0.1-3.1,0-4.7C18,1.9,17.5,0.8,16.1,0c-3,0-5.9,0-8.9,0
		c-1.4,0.6-2,1.7-2.1,3.2c0,1.7,0,3.4,0,5C5.1,9.2,5.6,9.4,6.5,9.4z"/>
	<path d="M2.8,45.5c-0.8,0.2-0.4,1-0.5,1.4c0,0.2,0,0.3,0,0.5c0,0.9,0.2,1.6,1.1,1.9c0.8,0.2,1.4-0.2,1.6-0.9c0.3-0.9,0.5-2-0.2-2.7
		C4.4,45.2,3.5,45.4,2.8,45.5z"/>
	<path d="M20.4,45.5C19,44.9,18,45.6,18,47.1c0,0.2,0,0.4,0,0.6c0,0.9,0.4,1.5,1.3,1.6c1,0.1,1.4-0.6,1.5-1.5c0.1-0.5,0-1,0-1.5
		C20.8,46,20.8,45.7,20.4,45.5z"/>
	<path d="M7.8,34c0.8,0.5,1.6,0.7,2.5,0.9c0.1,0,0.2,0,0.4,0c0.3,0,0.5,0.1,0.8,0.1c0.3,0,0.6,0,0.9-0.1c0.1,0,0.2,0,0.2,0
		c2.3-0.5,4-1.6,5.2-3.7c0.5-0.8,0.7-1.6,0.9-2.5c0-0.5,0-1,0-1.4c0-0.3,0-0.6,0-0.8c-0.5-2.3-1.6-4-3.7-5.2
		c-0.8-0.5-1.6-0.7-2.5-0.9c-0.8,0-1.5,0-2.3,0C8,20.8,6.3,22,5.1,24c-0.5,0.8-0.7,1.6-0.9,2.5c0,0.3,0,0.6,0,0.9c0,0.5,0,0.9,0,1.4
		C4.6,31,5.8,32.8,7.8,34z M11.4,22.2c2.8,0,5.2,2.3,5.4,5.1c0,0.1,0,0.2,0,0.3c0,0.6-0.1,1.3-0.3,1.9c-0.8,2.1-2.7,3.5-5,3.5
		c-2.3,0-4.3-1.5-5-3.5c-0.2-0.6-0.3-1.2-0.3-1.9c0-0.1,0-0.1,0-0.2C6.2,24.5,8.6,22.2,11.4,22.2z"/>
	<path d="M9.2,29.5c0.2,0.2,0.4,0.4,0.5,0.5c0.5,0.5,1,0.5,1.5,0c0.2-0.2,0.4-0.4,0.5-0.5c0.7-0.7,1.4-1.4,2.1-2.1
		c0.3-0.3,0.5-0.5,0.8-0.8c0.5-0.5,0.5-1.1,0.1-1.5c-0.4-0.4-1-0.4-1.5,0.1c-0.6,0.6-1.3,1.3-1.9,1.9c-0.1,0.1-0.2,0.2-0.2,0.2
		c-0.6,0.6-0.8,0.6-1.4,0c-0.1-0.1-0.2-0.2-0.3-0.2c-0.3-0.3-0.5-0.5-1-0.6c-0.4,0-0.7,0.2-0.8,0.6c0,0.1-0.1,0.2-0.1,0.2
		C7.6,27.7,7.7,28,8,28.2C8.4,28.7,8.8,29.1,9.2,29.5z"/>
	<path d="M23,24.1c0-3,0-6,0-9c0-0.3,0-0.5,0-0.7c0-0.5,0-1,0-1.5c-0.8-1.2-1.9-1.6-3.3-1.6c-3.5,0-7,0-10.5,0c-2.1,0-4.1,0-6.2,0
		c-1.8,0.1-2.7,0.8-2.9,2.3c0,0,0,0,0,0c0,0,0,0,0,0.1c0,4,0,8,0.1,12.1C2.6,26,2.6,26,3.5,23.7c1.7-4.2,6.2-6.4,10.4-5.2
		c3,0.9,5.1,3,6,6c0.4,1.3,1.2,1.3,2.2,1.2c0.5,0,0.7-0.2,0.8-0.4C23.1,25.1,22.9,24.5,23,24.1z"/>
</g>
</svg>
