<?xml version="1.0" encoding="utf-8"?>
<!-- Generator: Adobe Illustrator 21.0.0, SVG Export Plug-In . SVG Version: 6.00 Build 0)  -->
<svg version="1.1" id="Layer_1" xmlns="http://www.w3.org/2000/svg" xmlns:xlink="http://www.w3.org/1999/xlink" x="0px" y="0px"
	 viewBox="0 0 31 37.3" style="enable-background:new 0 0 31 37.3;" xml:space="preserve">
<g>
	<path d="M29.9,17c-1-0.5-2-1-3-1.4c-0.6-0.3-1-0.6-1.2-1.2c-0.8-1.5-1.7-3-2.4-4.5c-1.3-2.6-4.3-2.6-6-0.8
		c-2.7,2.9-5.6,5.7-8.4,8.5C8.2,18.3,8,19,8.1,19.9c0.2,1.3-0.2,2.7-0.8,3.8c-0.4,0.7-1.6,0.2-2.4,0.3c-0.2,0-0.4,0-0.6,0
		C3,24.3,2,25,1.6,26.3c-0.6,2.1-1.1,4.1-1.5,6.2c-0.2,0.9,0,1.8,0.8,2.4c0.4,0.3,0.7,0.3,1-0.2c1.3-2,3-1.8,4.1,0.3
		c0.1,0.3,0.3,0.5,0.6,0.5C6.9,35.5,7,35.3,7,35c0-0.1,0.1-0.3,0.1-0.5c0.9-4.3,1.9-8.6,2.8-12.9c0.1-0.4,0.2-0.8,0.5-1.1
		c1.5-1.3,2.9-2.7,4.4-4c0.1-0.1,0.3-0.4,0.6-0.2c0,0.9-0.3,1.7-0.5,2.5c-0.3,1.3-0.2,2.5,0.4,3.7c2.3,4.5,4.6,9.1,6.9,13.6
		c0.4,0.9,1.2,1.2,2.2,1c0.9-0.2,1.3-0.8,1.5-1.7c0.1-0.5-0.1-0.9-0.3-1.3c-1.4-3.5-2.8-7-4.3-10.5c-0.2-0.4-0.4-0.7-0.3-1.2
		c0.4-2,0.9-4,1.4-6.1c0.7,0.6,0.8,1.5,1.6,1.8c1.6,0.6,3.1,1.2,4.7,1.8c1,0.4,1.8,0,2.1-0.8C31.2,18.3,30.9,17.5,29.9,17z"/>
	<path d="M16.2,26.3c-0.2-0.4-0.3-1.1-0.8-1.1c-0.5,0-0.5,0.7-0.6,1.2c-0.4,1.9-1.2,3.6-2.6,5c-0.8,0.8-1.4,1.7-2.1,2.6
		c-0.3,0.4-0.5,0.8-0.5,1.3c0,0.8,0.4,1.4,1.1,1.8c0.9,0.4,1.7,0.2,2.3-0.4c1.6-1.7,3.2-3.4,4.7-5.1c0.4-0.5,0.5-1,0.2-1.5
		C17.4,28.7,16.8,27.5,16.2,26.3z"/>
	<path d="M22.5,7.3c2.2,0,3.8-1.6,3.8-3.7c0-2-1.6-3.6-3.7-3.6c-2.1,0-3.7,1.6-3.7,3.7C18.9,5.7,20.5,7.3,22.5,7.3z"/>
	<path d="M3.8,34c-0.8,0-1.6,0.8-1.6,1.6c0,0.9,0.7,1.6,1.6,1.6c0.8,0,1.6-0.8,1.6-1.6C5.4,34.8,4.7,34,3.8,34z"/>
</g>
</svg>
