<?xml version="1.0" encoding="utf-8"?>
<!-- Generator: Adobe Illustrator 21.0.0, SVG Export Plug-In . SVG Version: 6.00 Build 0)  -->
<svg version="1.1" id="Layer_1" xmlns="http://www.w3.org/2000/svg" xmlns:xlink="http://www.w3.org/1999/xlink" x="0px" y="0px"
	 viewBox="0 0 32 33.7" style="enable-background:new 0 0 32 33.7;" xml:space="preserve">
<g>
	<g>
		<path d="M31.9,0c-9.5,0-19,0-28.5,0c0,0,0,0.1,0,0.1c0,7.8,0,15.5,0,23.3c0,0.2,0,0.2,0.2,0.2c1,0,2,0,3,0c0.3,0,0.3,0,0.3-0.2
			c0-6.6,0-13.2,0-19.8c0-0.2,0-0.2,0.2-0.2c7.2,0,14.3,0,21.5,0c0.1,0,0.2,0,0.2,0.2c0,8.4,0,16.7,0,25.1c0,0.5-0.2,0.9-0.5,1.2
			c-0.4,0.4-1,0.6-1.6,0.5c-0.5-0.1-0.8-0.3-1.1-0.8c-0.1-0.3-0.2-0.6-0.2-0.9c0-1.1,0-2.1,0-3.2c0-0.2,0-0.2-0.2-0.2
			c-8.3,0-16.6,0-24.9,0c-0.2,0-0.2,0-0.2,0.2c0,1.6,0,3.3,0,4.9c0,0.2,0,0.4,0,0.5c0.3,1.6,1.6,2.8,3.3,2.8c7.9,0,15.7,0,23.6,0
			c0.2,0,0.5,0,0.7-0.1c0.9-0.1,1.7-0.5,2.4-1c0.9-0.7,1.5-1.6,1.8-2.8c0.1-0.3,0.1-0.6,0.1-0.9c0-9.6,0-19.2,0-28.8
			C32,0,32,0,31.9,0z"/>
		<path d="M25.1,8.4c-3.3,0-6.5,0-9.8,0c-0.2,0-0.2,0-0.2,0.2c0,1,0,2,0,3c0,0.2,0,0.2,0.2,0.2c1.6,0,3.2,0,4.9,0c1.6,0,3.3,0,4.9,0
			c0.1,0,0.2,0,0.2-0.2c0-1,0-2,0-3.1C25.2,8.4,25.2,8.4,25.1,8.4z"/>
		<path d="M15.3,20.2c1.6,0,3.2,0,4.8,0c1.6,0,3.3,0,4.9,0c0.2,0,0.2,0,0.2-0.2c0-1,0-2,0-3.1c0-0.2,0-0.2-0.2-0.2
			c-3.3,0-6.5,0-9.8,0c-0.2,0-0.2,0-0.2,0.2c0,1,0,2,0,3C15.1,20.2,15.1,20.2,15.3,20.2z"/>
		<path d="M13.3,8.4c-1,0-2,0-3.1,0c-0.1,0-0.2,0-0.2,0.2c0,1,0,2.1,0,3.1c0,0.1,0,0.2,0.2,0.2c0.5,0,1,0,1.6,0c0.5,0,1,0,1.5,0
			c0.1,0,0.2,0,0.2-0.2c0-1,0-2,0-3.1C13.5,8.4,13.5,8.4,13.3,8.4z"/>
		<path d="M10.1,20.1c0,0.1,0,0.2,0.2,0.2c1,0,2.1,0,3.1,0c0.1,0,0.2,0,0.2-0.2c0-1,0-2.1,0-3.1c0-0.1,0-0.2-0.2-0.1
			c-0.5,0-1,0-1.5,0c-0.5,0-1,0-1.5,0c-0.1,0-0.2,0-0.2,0.2C10.1,18,10.1,19,10.1,20.1z"/>
	</g>
</g>
</svg>
