<?xml version="1.0" encoding="utf-8"?>
<!-- Generator: Adobe Illustrator 21.0.0, SVG Export Plug-In . SVG Version: 6.00 Build 0)  -->
<svg version="1.1" id="Layer_1" xmlns="http://www.w3.org/2000/svg" xmlns:xlink="http://www.w3.org/1999/xlink" x="0px" y="0px"
	 viewBox="0 0 27 35.1" style="enable-background:new 0 0 27 35.1;" xml:space="preserve">
<g id="twhbZf.tif">
	<g>
		<path d="M0,26.5c0.2-0.5,0.5-0.9,0.8-1.4c0.9-1.2,1.8-2.5,2.7-3.7c0.2-0.2,0.3-0.5,0.3-0.8c0-0.4,0-0.9,0-1.3
			c0-0.2,0.1-0.3,0.3-0.4c0.4-0.2,0.9-0.4,1.3-0.5c0.5-0.2,0.8-0.4,1.1-0.8c1.1-1.5,2.6-2.7,4.5-3.2c3.3-1.1,7.1,0,9.2,2.8
			c0.6,0.8,1.3,1.3,2.2,1.6c1,0.3,1,0.4,0.9,1.4c0,0.7,0.1,1.3,0.6,1.9c0.9,1.2,1.8,2.4,2.6,3.6c0.2,0.3,0.4,0.6,0.5,1
			c0,0.3,0,0.6,0,1c-0.2,0.8-0.8,1.3-1.6,1.6c-0.5,0.2-1,0.4-1.5,0.6c-0.7,0.3-0.7,0.3-0.7,1c0,0.4-0.1,0.6-0.5,0.7
			c-2.9,1.2-5.9,2.3-8.8,3.5c-0.3,0.1-0.6,0.1-0.9,0c-2.8-1.1-5.6-2.3-8.4-3.4c-1.1-0.4-0.8-0.2-0.9-1.2c0-0.3-0.1-0.4-0.3-0.5
			c-0.6-0.2-1.2-0.5-1.8-0.7c-0.8-0.3-1.3-0.8-1.6-1.6C0,27.2,0,26.8,0,26.5z M6.4,30.9c2.1,0.8,4.1,1.7,6.2,2.5
			c0.3,0.1,0.3,0,0.3-0.2c0-3.1,0-6.2,0-9.3c0-0.2-0.1-0.3-0.3-0.4c-2.4-1-4.9-2-7.3-2.9c-0.2-0.1-0.3,0-0.3,0.2c0,1.6,0,3.3,0,4.9
			C5,25.9,5.1,26,5.3,26c0.7,0.3,1.3,0.5,2,0.8c0.8,0.3,1.4,1.3,1.3,2.1c-0.1,1.1-0.8,1.8-1.8,2C6.7,30.9,6.6,30.9,6.4,30.9z
			 M20.6,31c-0.3-0.1-0.6-0.1-0.8-0.2c-0.8-0.3-1.4-1.1-1.4-2c0-0.9,0.5-1.6,1.3-2c0.6-0.3,1.3-0.5,1.9-0.8c0.3-0.1,0.3-0.2,0.3-0.5
			c0-1.6,0-3.2,0-4.7c0-0.3,0-0.4-0.3-0.3c-0.7,0.3-1.3,0.6-2,0.8c-0.2,0.1-0.3,0.2-0.3,0.4c0,0.4,0,0.9,0,1.3
			c0,0.2-0.1,0.3-0.3,0.4c-0.4,0.2-0.8,0.3-1.2,0.5c-0.2,0.1-0.3,0-0.3-0.2c0-0.4,0-0.8,0-1.2c0-0.3-0.1-0.3-0.3-0.2
			c-1,0.4-1.9,0.8-2.9,1.1c-0.2,0.1-0.3,0.2-0.3,0.4c0,3.1,0,6.2,0,9.4c0,0.3,0.1,0.3,0.3,0.2c1.4-0.6,2.9-1.1,4.3-1.7
			C19.3,31.5,19.9,31.2,20.6,31z M16.4,21.3c-0.2-0.1-0.2-0.1-0.3-0.1c-2-0.8-4-1.6-6-2.4c-0.9-0.4-1.6-0.4-2.4,0
			c-0.5,0.3-1.1,0.5-1.7,0.7c0.1,0,0.1,0.1,0.1,0.1c2.3,0.9,4.6,1.8,6.9,2.8c0.3,0.1,0.6,0.1,0.9,0C14.8,22,15.6,21.7,16.4,21.3z
			 M21,19.5c-0.3-0.1-0.4-0.2-0.6-0.2c-2.2-0.9-4.4-1.8-6.6-2.7c-0.1,0-0.2-0.1-0.4-0.1c-0.7,0.3-1.3,0.5-2.1,0.8
			c0.1,0.1,0.1,0.1,0.2,0.1c2.4,0.9,4.7,1.9,7.1,2.8c0.1,0.1,0.3,0.1,0.4,0C19.6,20,20.3,19.8,21,19.5z"/>
		<path d="M14.4,0c1.1,0.2,2.2,0.6,3.1,1.3c1.4,1.2,2.2,2.6,2.4,4.4c0.3,3.2-1.8,6.2-5.1,6.8c-3.6,0.7-7.1-1.8-7.5-5.5
			C6.8,3.7,9.1,0.6,12.5,0c0,0,0.1,0,0.1,0C13.2,0,13.8,0,14.4,0z"/>
	</g>
</g>
</svg>
