<?xml version="1.0" encoding="utf-8"?>
<!-- Generator: Adobe Illustrator 21.0.0, SVG Export Plug-In . SVG Version: 6.00 Build 0)  -->
<svg version="1.1" id="Layer_1" xmlns="http://www.w3.org/2000/svg" xmlns:xlink="http://www.w3.org/1999/xlink" x="0px" y="0px"
	 viewBox="0 0 25.8 35.1" style="enable-background:new 0 0 25.8 35.1;" xml:space="preserve">
<g>
	<path d="M16,5.8c1.3-0.1,2.5-1.1,2.7-2.5C19,1.9,18.2,0.8,16.6,0c-0.5,0-1,0-1.6,0c-0.2,0.1-0.3,0.2-0.5,0.2
		c-1.3,0.7-1.9,2-1.6,3.4C13.3,5,14.5,5.9,16,5.8z"/>
	<path d="M25.8,23.9c0-1-0.3-1.3-1.3-1.3c-0.6,0-0.8-0.2-0.7-0.8c0-0.2,0-0.4,0-0.5c0-0.7,0.2-1.5-0.7-1.9c-0.2-0.1-0.1-0.4-0.1-0.7
		c0-1.3,0-2.5,0-3.8c0-1.8,0.1-3.5-0.1-5.3c-0.2-1.7-1.6-2.9-3.3-2.9c-2.5,0-5,0-7.6,0c-1.8,0-3.2,1.5-3.3,3.3c0,0.4,0,0.8,0,1.2
		c0,0.3,0.2,0.6-0.1,0.8c-0.2,0.1-0.5-0.2-0.7-0.3c-0.9-0.5-1.8-1.1-2.7-1.6C4.3,9.6,3.5,9.8,3,10.5c-0.4,0.8-0.2,1.6,0.7,2.1
		c1.8,1.1,3.6,2.1,5.4,3.2c1.3,0.7,2.4,0.1,2.4-1.4c0-1.2,0-2.5,0-3.7c0-0.2-0.1-0.5,0.2-0.7c0.3,0.3,0.2,0.6,0.2,0.9
		c0,7.3,0,14.5,0,21.8c0,0.4,0,0.8,0.1,1.2c0.3,0.8,0.9,1.3,1.7,1.3c0.8-0.1,1.5-0.7,1.6-1.5c0-0.3,0-0.6,0-0.9c0-3.8,0-7.7,0-11.5
		c0-0.2,0-0.5,0-0.7c0-0.1,0.1-0.3,0.2-0.3c0.2,0,0.3,0.1,0.3,0.3c0,0.4,0,0.7,0,1.1c0,0.1,0,0.3,0.2,0.3c0.4,0,1.5-1.2,1.5-1.6
		c0-0.9,0.3-1.7,1.1-2c0.5-0.2,0.6-0.6,0.6-1c0-2.2,0-4.4,0-6.5c0-0.2,0-0.4,0-0.6c0-0.1,0.1-0.1,0.1-0.2c0.1,0,0.2,0.1,0.2,0.2
		c0,0.2,0,0.4,0,0.6c0,2.6,0,5.1,0,7.7c0,0.5,0,1-0.5,1.3c-0.3,0.1-0.3,0.5-0.3,0.8c0,0.5,0,0.9,0,1.4c0,0.5-0.2,0.7-0.7,0.7
		c-1,0-1.3,0.4-1.3,1.3c0,2.8,0,5.5,0,8.3c0,0.6,0.1,1.1,0.7,1.3c0.3,0.1,0.3,0.3,0.3,0.6c0,0.6,0.2,1,0.8,1c0.6,0,0.8-0.4,0.8-0.9
		c0-0.5,0.3-0.6,0.7-0.6c0.6,0,1.3,0,1.9,0c0.5,0,0.8,0.1,0.7,0.6c0,0.5,0.2,0.9,0.8,0.9c0.6,0,0.8-0.4,0.9-0.9c0-0.3,0-0.6,0.4-0.7
		c0.5-0.2,0.6-0.7,0.6-1.2C25.8,29.4,25.8,26.7,25.8,23.9z"/>
	<path d="M3.9,7.9c-0.1-0.7-0.3-1.3-0.4-2C3.4,5.6,3.3,5.4,2.8,5.4C2.1,5.6,1.2,5.7,0.4,5.9C0,6,0,6.3,0,6.7C0.3,7.8,0.5,9,0.8,10.2
		c0,0.2,0.1,0.5,0.4,0.5c0.3,0,0.3-0.2,0.4-0.4c0.3-0.9,1-1.6,2-1.8C3.9,8.4,4,8.2,3.9,7.9z"/>
</g>
</svg>
