<?xml version="1.0" encoding="utf-8"?>
<!-- Generator: Adobe Illustrator 21.0.0, SVG Export Plug-In . SVG Version: 6.00 Build 0)  -->
<svg version="1.1" id="Layer_1" xmlns="http://www.w3.org/2000/svg" xmlns:xlink="http://www.w3.org/1999/xlink" x="0px" y="0px"
	 viewBox="0 0 47 55.8" style="enable-background:new 0 0 47 55.8;" xml:space="preserve">
<g>
	<path d="M35.4,12.1c0.3,0.2,0.5,0.4,0.8,0.5c0.2,0.1,0.4,0.2,0.5,0.4c0,0,0.1,0,0.1,0.1c0.1,0,0.1,0,0.1,0c0,0,0.1,0,0.1-0.1
		c0.1-0.1,0.2-0.2,0.2-0.4c0,0-0.1-0.1-0.2-0.2c-0.4-0.3-1.2-0.8-1.5-0.9c0,0-0.1,0-0.1,0v0c0,0,0,0,0,0s0,0,0,0.1c0,0,0,0,0,0.1
		c0,0,0,0,0,0c0,0,0,0,0,0.1c0,0,0,0.1,0,0.1c0,0.1,0,0.1,0,0.1C35.3,12,35.4,12.1,35.4,12.1z"/>
	<path d="M42.3,18.8c0.1,0.2,0.2,0.3,0.4,0.5c0.1,0.1,0.1,0.1,0.2,0.1c0,0,0.1,0,0.1,0c0,0,0.1,0,0.1-0.1c0.1-0.1,0.2-0.1,0.2-0.2
		c0,0,0-0.1,0-0.1c-0.1-0.1-0.1-0.2-0.2-0.3c-0.1-0.2-0.3-0.5-0.4-0.7c-0.2-0.2-0.3-0.4-0.5-0.6c-0.1-0.1-0.2,0-0.3,0
		c0,0-0.1,0-0.1,0.1c0,0-0.1,0-0.1,0.1c0,0,0,0,0,0.1c0,0.1,0,0.1,0,0.2C41.9,18.2,42.1,18.5,42.3,18.8z"/>
	<path d="M15.6,10.7c-0.1,0.2-0.2,0.4-0.2,0.7c2.5-1.1,5.3-1.7,8.2-1.7c2.9,0,5.6,0.6,8,1.6c0.1,0,0.1,0,0.2,0
		c0.7-0.1,1.6-0.7,1.5-1c-0.2-0.6-0.8-0.9-1.4-1c0,0,0,0-0.1,0c-0.2,0-0.4,0-0.5,0c-0.2-0.1-0.4-0.1-0.7,0c-0.7,0-1.3,0-2,0
		c-0.2,0-0.4,0-0.7,0c-0.2,0-0.4,0-0.6-0.1c-0.1-0.1-0.1-0.3-0.2-0.4c-0.4-0.7-1-1.4-0.7-2.4c0.1-0.3,0-0.6-0.4-0.6
		c-1,0.1-1.1-0.7-1.4-1.4c0.2,0,0.5,0.1,0.7-0.2c0.2-0.7,0-1.1-0.8-1.1c-0.1,0-0.3,0-0.4,0c-0.4,0-0.6-0.3-0.8-0.6
		c-0.5-0.7-0.7-1.7-1.7-2c-0.3-0.1-0.6-0.2-0.9-0.4c-0.1,0.3,0.1,0.6,0.2,0.8c0.1,0.5,0.2,1.1,0.5,1.6c0,0.1,0,0.3,0.1,0.4
		c0.1,0.6,0.3,1.2,0.5,1.8c0,0.1,0,0.2,0,0.2c0.2,0.6,0.3,1.2,0.5,1.7c0,0.1,0.1,0.3,0.1,0.4c-0.2,0.7,0.1,1.4-0.2,2.1
		c-0.6,0-1.2,0-1.9,0C20.5,9,20.3,9,20,9c-0.7-0.1-1.3,0.2-2,0.2c-0.4-0.8-0.9-1.6-1.3-2.3c-0.3-0.5-0.8-0.6-1.4-0.6
		c-0.4,0-0.5,0.1-0.4,0.5c0.3,0.8,0.5,1.7,0.7,2.5c0.2,0.5,0,0.6-0.4,0.6c-0.4,0-0.8-0.1-1.1,0.2c0.4,0.1,0.8,0.1,1.2,0.1
		C15.7,10.2,15.8,10.3,15.6,10.7z"/>
	<path d="M3,21.5c0.1-0.1,0.1-0.2,0.2-0.3c0-0.1,0.1-0.2,0.1-0.2c0.1-0.1,0.1-0.3,0.2-0.4c0-0.1,0.1-0.1,0.1-0.2
		c0.1-0.2,0.2-0.4,0.3-0.6c1-1.8,2.3-3.3,3.7-4.7c0,0,0,0,0,0c0,0,0,0,0,0c0.5-0.5,1-0.9,1.5-1.3c0.1-0.1,0.2-0.1,0.3-0.2
		c0,0,0.1-0.1,0.1-0.2c0,0,0,0,0,0c0-0.1,0-0.1-0.1-0.2c-0.3-0.4-0.5,0-0.7,0.1c-0.5,0.4-1,0.8-1.4,1.2c-0.2,0.1-0.3,0.3-0.4,0.4
		c-0.2,0.2-0.4,0.5-0.6,0.7c-0.1,0.1-0.1,0.2-0.2,0.2c-0.1,0.2-0.3,0.3-0.4,0.5c-0.1,0.1-0.2,0.2-0.2,0.3c-0.1,0.1-0.2,0.3-0.3,0.4
		c-0.1,0.1-0.2,0.2-0.3,0.4c-0.1,0.1-0.2,0.2-0.3,0.4c-0.1,0.1-0.2,0.3-0.3,0.4c-0.1,0.1-0.2,0.2-0.2,0.3c-0.1,0.1-0.2,0.3-0.3,0.4
		c-0.1,0.1-0.1,0.2-0.2,0.3c-0.1,0.1-0.2,0.3-0.3,0.4c-0.1,0.1-0.1,0.2-0.2,0.3C3.1,20,3,20.1,2.9,20.3c-0.1,0.1-0.1,0.2-0.2,0.3
		c-0.1,0.2-0.2,0.3-0.3,0.5c0,0.1-0.1,0.2-0.1,0.3c-0.1,0.2-0.2,0.3-0.2,0.5C2.1,21.8,2,21.9,2,22c-0.1,0.2-0.2,0.3-0.2,0.5
		c0,0.1-0.1,0.1-0.1,0.2c-0.1,0.2-0.1,0.4-0.2,0.5c0,0.1-0.1,0.1-0.1,0.2c-0.1,0.2-0.1,0.4-0.2,0.6c0,0.1,0,0.1-0.1,0.2
		C1,24.4,1,24.6,0.9,24.8c0,0.1,0,0.1-0.1,0.2c-0.1,0.2-0.1,0.4-0.2,0.6c0,0.1,0,0.1,0,0.2c-0.1,0.2-0.1,0.4-0.1,0.6
		c0,0.1,0,0.1,0,0.2c0,0.2-0.1,0.4-0.1,0.6c0,0,0,0.1,0,0.1c0,0.2-0.1,0.4-0.1,0.6c0,0,0,0.1,0,0.1c0,0.2-0.1,0.4-0.1,0.7
		c0,0,0,0.1,0,0.1c0,0.2,0,0.5-0.1,0.7c0,0,0,0.1,0,0.1c0,0.2,0,0.5,0,0.7c0,0,0,0.1,0,0.1c0,0.2,0,0.5,0,0.7c0,0,0,0.1,0,0.1
		c0,0.2,0,0.5,0,0.7c0,0,0,0,0,0.1c0,0.2,0,0.5,0,0.8c0,0,0,0,0,0.1c0,0.3,0,0.5,0.1,0.8c0,0,0,0,0,0.1c0,0.3,0.1,0.5,0.1,0.8
		c0,0,0,0,0,0c0,0.3,0.1,0.5,0.1,0.8c0,0,0,0,0,0c0,0.3,0.1,0.5,0.2,0.8c0,0,0,0,0,0c0.1,0.3,0.1,0.5,0.2,0.8c0,0,0,0,0,0
		c0.1,0.3,0.1,0.6,0.2,0.8c0,0,0,0,0,0c0.1,0.3,0.2,0.6,0.2,0.8c0,0,0,0,0,0c0.1,0.3,0.2,0.6,0.3,0.9c0,0,0,0,0,0
		c0.1,0.2,0.1,0.3,0.2,0.5c0.2-0.2,0.4-0.4,0.4-0.7C2.1,39.3,2,39.1,2,39v0c-0.1-0.2-0.1-0.4-0.2-0.6c0,0,0,0,0,0
		c-0.1-0.2-0.1-0.4-0.2-0.6c0,0,0,0,0,0c-0.1-0.2-0.1-0.4-0.2-0.6c0,0,0,0,0,0c0-0.2-0.1-0.4-0.1-0.6c0,0,0,0,0,0
		c0-0.2-0.1-0.4-0.1-0.6c0,0,0,0,0-0.1c0-0.2-0.1-0.4-0.1-0.6c0,0,0,0,0-0.1c0-0.2-0.1-0.4-0.1-0.5c0,0,0-0.1,0-0.1
		c0-0.2-0.1-0.4-0.1-0.5c0,0,0-0.1,0-0.1c0-0.2,0-0.3-0.1-0.5c0,0,0-0.1,0-0.1c0-0.2,0-0.3,0-0.5c0,0,0-0.1,0-0.1c0-0.2,0-0.3,0-0.5
		c0,0,0-0.1,0-0.1c0-0.2,0-0.3,0-0.5c0,0,0-0.1,0-0.1c0-0.2,0-0.3,0-0.5c0,0,0-0.1,0-0.1c0-0.2,0-0.3,0-0.5c0,0,0-0.1,0-0.1
		c0-0.2,0-0.3,0-0.5c0-0.1,0-0.1,0-0.2c0-0.1,0-0.3,0-0.4c0-0.1,0-0.1,0-0.2c0-0.1,0-0.3,0-0.4c0-0.1,0-0.1,0-0.2
		c0-0.1,0-0.3,0.1-0.4c0-0.1,0-0.1,0-0.2c0-0.1,0-0.3,0.1-0.4c0-0.1,0-0.1,0-0.2c0-0.1,0.1-0.3,0.1-0.4c0-0.1,0-0.1,0-0.2
		c0-0.1,0.1-0.3,0.1-0.4c0-0.1,0-0.1,0.1-0.2c0-0.1,0.1-0.2,0.1-0.4c0-0.1,0-0.2,0.1-0.2c0-0.1,0.1-0.2,0.1-0.4c0-0.1,0-0.2,0.1-0.2
		c0-0.1,0.1-0.2,0.1-0.4c0-0.1,0.1-0.2,0.1-0.3c0-0.1,0.1-0.2,0.1-0.3c0-0.1,0.1-0.2,0.1-0.3c0-0.1,0.1-0.2,0.1-0.3
		c0-0.1,0.1-0.2,0.1-0.3c0-0.1,0.1-0.2,0.1-0.3c0-0.1,0.1-0.2,0.1-0.3c0-0.1,0.1-0.2,0.1-0.3c0-0.1,0.1-0.2,0.1-0.3
		C2.9,21.7,2.9,21.6,3,21.5z"/>
	<path d="M45.5,25c-0.2,0-0.3,0.1-0.3,0.4c0.1,0.5,0.2,1.1,0.3,1.6c0.1,0.2,0.2,0.2,0.4,0.2c0.2,0,0.3-0.1,0.3-0.3
		c-0.1-0.6-0.3-1.1-0.4-1.7C45.8,25,45.6,24.9,45.5,25z"/>
	<path d="M45.3,23C45.3,23,45.3,23,45.3,23C45.3,23,45.3,23,45.3,23c0-0.2-0.1-0.3-0.1-0.3c-0.1-0.1-0.1-0.3-0.2-0.4
		c-0.1-0.3-0.2-0.5-0.3-0.8c-0.1-0.1-0.2-0.2-0.2-0.3c-0.1,0-0.1,0-0.2,0.1c-0.2,0.1-0.3,0.1-0.3,0.3c0,0,0,0.1,0,0.2
		c0.2,0.5,0.4,1,0.6,1.4c0.1,0.2,0.2,0.2,0.2,0.2c0,0,0,0,0,0c0,0,0,0,0.1,0c0.1,0,0.1-0.1,0.2-0.1C45.2,23.2,45.2,23.1,45.3,23
		C45.2,23.1,45.3,23,45.3,23z"/>
	<path d="M38.8,14.7c0.4,0.4,0.8,0.8,1.2,1.2c0,0,0.1,0.1,0.1,0.1c0.1,0.1,0.2,0,0.3-0.1c0,0,0,0,0.1,0c0,0,0,0,0.1-0.1
		c0.1-0.1,0.1-0.2,0-0.4c-0.2-0.2-0.3-0.3-0.5-0.5c-0.2-0.2-0.3-0.3-0.5-0.5c0,0,0,0-0.1,0c-0.1-0.1-0.2-0.1-0.2-0.2h0
		c0,0-0.1,0-0.1,0c0,0-0.1,0-0.1,0c-0.1,0-0.1,0.1-0.2,0.2c-0.1,0.1-0.1,0.1-0.1,0.2C38.7,14.6,38.7,14.6,38.8,14.7
		C38.8,14.6,38.8,14.7,38.8,14.7z"/>
	<ellipse transform="matrix(0.9143 -0.4049 0.4049 0.9143 -7.4188 21.0649)" cx="46.1" cy="28.1" rx="0" ry="0"/>
	<path d="M45.6,27.1C45.6,27.1,45.6,27.1,45.6,27.1C45.6,27.1,45.6,27.1,45.6,27.1C45.6,27.1,45.6,27.1,45.6,27.1
		C45.6,27.1,45.6,27.1,45.6,27.1z"/>
	<path d="M46,27.8C45.9,27.8,45.9,27.8,46,27.8C46,27.8,46,27.8,46,27.8C46,27.8,46,27.8,46,27.8C46,27.8,46,27.8,46,27.8z"/>
	<ellipse transform="matrix(0.9034 -0.4288 0.4288 0.9034 -7.7887 22.6365)" cx="46.3" cy="28.6" rx="0" ry="0"/>
	<path d="M47,29.8C47,29.8,47,29.8,47,29.8C47,29.8,47,29.8,47,29.8C47,29.8,47,29.8,47,29.8C47,29.8,47,29.8,47,29.8z"/>
	<ellipse transform="matrix(0.8572 -0.515 0.515 0.8572 -8.5212 28.3569)" cx="46.9" cy="29.5" rx="0" ry="0"/>
	<path d="M31.4,49.4c0-0.9,0-1.9,0-2.8c0-1,0-2,0-3c0-0.3-0.1-0.4-0.4-0.2c-0.6,0.3-1.1,0.7-1.7,1c-0.2,0.1-0.3,0.3-0.3,0.5
		c0,1.9,0,3.8,0,5.7c0,0,0,0,0,0v0c0,0.1,0,0.1,0,0.2c0,0.4,0.1,0.4,0.4,0.2c0.5-0.3,1.1-0.6,1.6-0.9c0.1-0.1,0.2-0.2,0.3-0.3
		c0.1,0,0.1-0.1,0.2-0.1l-0.2,0.1C31.4,49.7,31.4,49.6,31.4,49.4z"/>
	<path d="M23,55.4c-1.4-0.8-2.9-1.7-4.3-2.5c1.4,0.9,3,1.9,4.7,2.9c0,0,2.8-1.3,6.6-4c-2.1,1.2-4.2,2.4-6.3,3.6
		C23.4,55.6,23.2,55.5,23,55.4z"/>
	<path d="M5.4,40.7c0,0,0,0,0.1,0.1C5.5,40.7,5.5,40.7,5.4,40.7L5.4,40.7z"/>
	<path d="M24,54.1c0.6-0.4,1.3-0.7,1.9-1.1c0.3-0.2,0.4-0.4,0.4-0.7c0-0.4,0-0.8,0-1.2c0-0.5,0-1.1,0-1.6c0-1,0-2,0-3
		c0-0.3-0.1-0.4-0.4-0.2c-0.7,0.4-1.3,0.8-2,1.2c-0.2,0.1-0.3,0.3-0.3,0.5c0,1.1,0,2.3,0,3.4c0,0.9,0,1.8,0,2.6
		C23.7,54.3,23.8,54.3,24,54.1z"/>
	<path d="M23.2,53.9c0-0.9,0-1.7,0-2.6c0-0.1,0-0.3,0-0.4c0-1,0-1.9,0-2.9c0-0.3-0.1-0.4-0.3-0.6c-2.4-1.3-4.7-2.7-7-4.1
		c-0.3-0.2-0.4-0.1-0.4,0.2c0,2,0,4,0,5.9c0,0,0,0.1,0,0.1c0,0.2,0.1,0.3,0.3,0.4c2.3,1.4,4.7,2.7,7,4.1
		C23,54.3,23.2,54.3,23.2,53.9z"/>
	<path d="M23.8,38.2c-0.2-0.1-0.3-0.1-0.5,0c-0.6,0.3-1.2,0.7-1.7,1c-0.3,0.2-0.3,0.3,0,0.4c0.5,0.3,0.9,0.5,1.4,0.8
		c0.5,0.3,1,0.6,1.5,0.9c0.2,0.1,0.3,0.1,0.5,0c0.5-0.3,1.1-0.6,1.6-0.9c0.1,0,0.1-0.1,0.2-0.1c0.1,0,0.2-0.1,0.2-0.2
		c0,0-0.1-0.1-0.2-0.1C25.8,39.3,24.8,38.8,23.8,38.2z"/>
	<path d="M19,39.2c-0.3-0.2-0.5-0.2-0.8,0.1c-0.3,0.4-0.6,0.8-1,1.2c-0.5,0.5-0.9,1.1-1.4,1.6c-0.4,0.5-0.4,0.5,0.1,0.8
		c2.2,1.3,4.4,2.5,6.5,3.8c0.3,0.2,0.5,0.2,0.7-0.1c0.9-1,1.7-2,2.6-3c0-0.1,0.1-0.1,0.1-0.2c0-0.2-0.1-0.2-0.2-0.3
		c-1.6-0.9-3.1-1.8-4.7-2.7C20.4,40,19.7,39.6,19,39.2z"/>
	<path d="M30.9,42.3c-1-0.6-2-1.1-3-1.7c-0.2-0.1-0.4-0.1-0.6,0c-0.6,0.3-1.2,0.7-1.7,1c-0.2,0.1-0.3,0.2,0,0.4
		c0.5,0.3,1,0.6,1.5,0.9c0.6,0.3,0.5,0.3,0.1,0.8c-0.8,0.9-1.5,1.7-2.2,2.6c0,0,0,0,0,0c2-1.1,3.9-2.3,5.9-3.4
		C31.3,42.6,31.3,42.5,30.9,42.3z"/>
	<path d="M31.7,11.3c-0.7,0.1-1.4,0-2.1,0c-0.1,0-0.3,0-0.4,0c-0.6,0-1.2,0-1.8,0c-0.4,0.6-0.7,1.3-1.1,1.9c0.4,0.4,0.3,0.8,0.1,1.2
		c-0.2,0.3-0.6,0.1-0.9,0.1c-0.3,0.5-0.7,0.8-0.8,1.4c0.5-0.1,0.7,0.1,0.6,0.6c0,0.4,0,0.9-0.6,0.8c-0.3,0-0.6,0-0.8,0
		c-0.5,0.4-0.8,1-1.1,1.5c-0.4,0.6-0.9,1-1.6,1.2c-0.1,0-0.3,0.1-0.4,0c-0.1-0.1,0-0.3,0-0.4c0.1-0.4,0.3-0.8,0.4-1.3
		c0.3-0.9,0.5-1.9,0.9-2.8c0-0.3,0.1-0.6,0.3-0.9c0.4-1.1,0.4-2.3,0.4-3.4c-0.4,0-0.8-0.1-1.2-0.1c-0.2,0-0.4,0-0.5,0
		c-0.7,0-1.3,0-2-0.1c-0.2,0-0.4,0-0.5-0.1c-0.2,0-0.4,0-0.5,0c-0.4,0.8-0.9,1.5-1.4,2.3c-0.2,0.2-0.4,0.4-0.7,0.5
		c-0.4,0.1-0.8,0.3-1.1,0c-0.2-0.2,0.1-0.6,0.2-0.9c0.1-0.5,0.3-1,0.4-1.5C8,14.5,2.8,21.9,2.8,30.5c0,3.7,1,7.2,2.7,10.2
		c0,0,0,0.1,0.1,0.1C5.7,41,5.9,41.3,6,41.5l0,0c0,0,0,0,0,0c0.8,1.3,1.8,2.5,2.9,3.6c1.5,1.6,3.4,3.5,5.6,4.7c0-0.2,0-0.3,0-0.6
		c0,0,0-0.1,0-0.1c0.1-2.1,0-4.3,0-6.4c0-0.3,0.1-0.5,0.3-0.8c0.4-0.5,0.9-1,1.3-1.5c0.7-0.8,1.4-1.7,2.1-2.5
		c0.2-0.2,0.4-0.2,0.6-0.1c0.4,0.3,0.9,0.5,1.3,0.8c0.2,0.1,0.4,0.1,0.6,0c0.6-0.3,1.1-0.7,1.7-1c0.3-0.2,0.3-0.3,0.1-0.5
		c-0.9-1-1.9-2-2.8-3.1c-0.1-0.1-0.2-0.2-0.2-0.4c0.5,0.3,0.9,0.5,1.4,0.8c3,1.8,6.1,3.5,9.1,5.3c0.2,0.1,0.4,0.3,0.6,0.5
		c0.2,0.3,0.5,0.5,0.7,0.8c0.3,0.3,0.6,0.7,0.9,1c0.2,0.2,0.2,0.4,0.2,0.6c0,2.2,0,4.5,0,6.7c0,0.2,0,0.4,0,0.7
		c2-1.3,3.5-2.6,4.7-3.7c2-1.7,3.7-3.8,4.9-6.2c0,0,0,0,0,0c1.5-2.9,2.4-6.2,2.4-9.6C44.5,21.8,39.2,14.4,31.7,11.3z M4.7,37
		C4.7,37,4.7,37,4.7,37L4.7,37C4.7,37,4.7,37,4.7,37z M4.8,36.8L4.8,36.8C4.8,36.8,4.8,36.8,4.8,36.8C4.8,36.8,4.8,36.8,4.8,36.8z
		 M4.9,36.7L4.9,36.7C4.9,36.7,4.9,36.7,4.9,36.7C4.9,36.7,4.9,36.7,4.9,36.7z M5.2,36.4L5.2,36.4C5.2,36.4,5.2,36.4,5.2,36.4
		C5.2,36.4,5.2,36.4,5.2,36.4z M5.3,36.3L5.3,36.3C5.4,36.3,5.4,36.3,5.3,36.3C5.4,36.3,5.3,36.3,5.3,36.3z M5.5,36.1L5.5,36.1
		C5.5,36.1,5.5,36.1,5.5,36.1C5.5,36.1,5.5,36.1,5.5,36.1z M16.5,30.9C16.5,30.9,16.5,30.9,16.5,30.9C16.5,30.9,16.5,30.9,16.5,30.9
		C16.5,30.9,16.5,30.9,16.5,30.9C16.5,30.8,16.5,30.8,16.5,30.9C16.5,30.8,16.5,30.9,16.5,30.9C16.6,30.9,16.5,30.9,16.5,30.9z
		 M20.4,29.5C20.4,29.5,20.4,29.5,20.4,29.5L20.4,29.5C20.4,29.5,20.4,29.5,20.4,29.5z"/>
</g>
</svg>
