<?xml version="1.0" encoding="utf-8"?>
<!-- Generator: Adobe Illustrator 21.0.0, SVG Export Plug-In . SVG Version: 6.00 Build 0)  -->
<svg version="1.1" id="Layer_1" xmlns="http://www.w3.org/2000/svg" xmlns:xlink="http://www.w3.org/1999/xlink" x="0px" y="0px"
	 viewBox="0 0 28 24.5" style="enable-background:new 0 0 28 24.5;" xml:space="preserve">
<g>
	<path d="M24.6,13c-1.8,0.4-1.8,0.4-1.8,2.3c0,0.9,0,1.8,0,2.7c0,0.5-0.2,0.7-0.6,0.9c-2.5,0.7-4.9,1.5-7.4,2.2
		c-0.5,0.1-0.7,0.1-0.7-0.5c0-5.6,0-11.2,0-16.9c0-0.5,0.2-0.7,0.7-0.5c0.5,0.2,1.1,0.5,1.6,0.4c0.5-0.2,0.6-0.9,1-1.3
		c0.1-0.1,0.2-0.2,0.3-0.4c0.4-0.4,0.2-0.6-0.3-0.8C16,0.8,14.7,0.4,13.4,0c-0.5,0-0.9,0-1.4,0C10.7,0.4,9.3,0.9,8,1.3
		C7.4,1.4,7.2,1.7,7.2,2.3c0,1.6,0,3.2,0,4.7c0,0.6-0.2,0.9-0.8,1C4.2,8.4,4.6,8.6,4.6,6.5c0-1.2,0-2.3,0-3.5c0-0.6-0.2-0.8-0.8-0.6
		C2.9,2.8,2,3.1,1.1,3.3C0.6,3.5,0.2,3.8,0,4.2c0,5.3,0,10.6,0,16c0.3,0.5,0.7,0.8,1.2,0.9c3.6,1.1,7.2,2.2,10.8,3.2
		c0.5,0.1,0.9,0.2,1.4,0c3.6-1.1,7.2-2.2,10.8-3.3c1-0.3,1.3-0.7,1.3-1.7c0-1.9,0-3.8,0-5.7C25.5,13,25.3,12.9,24.6,13z"/>
	<path d="M22.1,1.3c-2.8,0.4-4.7,3.1-4.2,6c0.5,2.7,3.3,4.6,5.9,4c2.3-0.5,3.7-1.9,4.2-4.2c0-0.6,0-1.2,0-1.8
		C27.2,2.3,24.5,0.9,22.1,1.3z M24.9,5.7c-0.7,0.7-1.5,1.4-2.2,2.2c-0.3,0.3-0.5,0.3-0.8,0c-0.3-0.3-0.7-0.7-1-1
		c-0.1-0.1-0.3-0.3-0.2-0.5c0.2-0.2,0.3-0.4,0.6-0.5c0.1,0.1,0.3,0.1,0.4,0.2c0.5,0.6,0.8,0.4,1.2-0.1c0.3-0.4,0.7-0.7,1.1-1.1
		c0.3-0.3,0.5-0.4,0.9,0C25.2,5.1,25.2,5.4,24.9,5.7z"/>
</g>
</svg>
