<?xml version="1.0" encoding="utf-8"?>
<!-- Generator: Adobe Illustrator 21.0.0, SVG Export Plug-In . SVG Version: 6.00 Build 0)  -->
<svg version="1.1" id="Layer_1" xmlns="http://www.w3.org/2000/svg" xmlns:xlink="http://www.w3.org/1999/xlink" x="0px" y="0px"
	 viewBox="0 0 16.2 13.2" style="enable-background:new 0 0 16.2 13.2;" xml:space="preserve">
<path d="M0,11.7c1.5,0.9,3.2,1.5,5.1,1.5c6.1,0,9.5-5.1,9.5-9.5c0-0.1,0-0.3,0-0.4c0.7-0.5,1.2-1.1,1.7-1.7c-0.7,0.2-1.3,0.4-2,0.5
	C15,1.7,15.5,1,15.8,0.2c-0.6,0.4-1.4,0.7-2.1,0.8c-0.6-0.6-1.5-1-2.5-1C9.4,0,7.9,1.5,7.9,3.3c0,0.3,0,0.5,0.1,0.8
	C5.2,4,2.8,2.6,1.1,0.6C0.8,1.1,0.7,1.7,0.7,2.3c0,1.2,0.6,2.2,1.5,2.8C1.6,5,1.1,4.9,0.7,4.6l0,0c0,1.6,1.1,3,2.7,3.3
	C3,8,2.8,8.1,2.4,8.1C2.2,8.1,2,8,1.8,8c0.4,1.3,1.7,2.3,3.1,2.3c-1.1,0.9-2.6,1.4-4.1,1.4C0.5,11.7,0.3,11.7,0,11.7L0,11.7z"/>
</svg>
