<?xml version="1.0" encoding="utf-8"?>
<!-- Generator: Adobe Illustrator 21.0.0, SVG Export Plug-In . SVG Version: 6.00 Build 0)  -->
<svg version="1.1" id="Layer_1" xmlns="http://www.w3.org/2000/svg" xmlns:xlink="http://www.w3.org/1999/xlink" x="0px" y="0px"
	 viewBox="0 0 29 25.9" style="enable-background:new 0 0 29 25.9;" xml:space="preserve">
<g>
	<path d="M27.3,11.3c-0.5-0.3-0.9-0.4-1.5-0.5c-0.4,0-0.9-0.5-0.9-0.9c0-2.5-1-4.5-2.5-6.4c-1.2-1.3-2.6-2.3-4.2-2.9
		c-0.9-0.3-1.9-0.5-2.9-0.6C15.1,0,15,0,15,0c-0.3,0-0.6,0-0.8,0c-0.7,0.1-1.4,0.1-2.1,0.3C9.2,1,7.1,2.6,5.5,5
		C4.7,6.3,4.2,7.7,4.1,9.2c0,0.3,0,0.6,0,0.9c0,0.2-0.1,0.2-0.2,0.4c-0.3,0.3-0.6,0.4-0.9,0.4c-1.6,0.3-2.5,1.3-2.9,2.8
		c0,0,0,0.1,0,0.1c0,0.4,0,0.8,0,1.2c0,0.1,0,0.1,0,0.2c0.4,1.6,1.6,2.7,3.3,2.9c0.1,0,0.2,0.1,0.3,0.2c0.3,0.3,0.6,0.5,1,0.5
		c0.9,0.1,1.6-0.6,1.6-1.6c0-1.8,0-3.6,0-5.4c0-0.5-0.1-0.9-0.5-1.2c-0.1-0.1-0.1-0.2-0.1-0.3C5.7,9.9,5.9,9.4,6,9
		c0.9-2.4,2.6-4.2,4.9-5.3c1.5-0.7,3-0.9,4.6-0.7c1.4,0.2,2.7,0.7,3.9,1.5c2,1.4,3.3,3.3,3.9,5.7c0,0.1,0,0.2-0.1,0.4
		c-0.4,0.3-0.5,0.7-0.5,1.2c0,1.8,0,3.6,0,5.4c0,0.5,0.2,1,0.6,1.2c0.3,0.2,0.4,0.4,0.3,0.7c0,0.1,0,0.2,0,0.3c0,1.4-1,2.7-2.3,3.1
		c-1.5,0.5-3,0.8-4.5,1.2c-0.1,0-0.2,0-0.4-0.1c-0.3-0.3-0.6-0.4-1-0.4c-0.7,0-1.2,0.6-1.2,1.3c0,0.6,0.4,1.2,1,1.4
		c0.6,0.2,1.3-0.2,1.5-0.8c0.1-0.2,0.2-0.3,0.4-0.4c1.3-0.3,2.6-0.7,3.9-1c1.6-0.4,2.7-1.3,3.2-2.9c0.2-0.6,0.3-1.2,0.3-1.8
		c0-0.2,0-0.3,0.2-0.3c0.2-0.1,0.4-0.2,0.5-0.4c0.1-0.1,0.2-0.1,0.3-0.1c0.7-0.1,1.4-0.3,2-0.8c0.7-0.6,1.1-1.3,1.3-2.2
		c0-0.4,0-0.8,0-1.2C28.8,12.8,28.2,11.9,27.3,11.3z"/>
	<path d="M18.1,12.7c0-0.4-0.3-0.7-0.6-0.7c-0.4,0-0.6,0.3-0.6,0.7c0,1.3,0,2.6,0,3.9c0,0.4,0.3,0.7,0.6,0.7c0.4,0,0.6-0.3,0.6-0.7
		c0-0.4,0-0.8,0-1.2c0-0.2,0.1-0.3,0.3-0.3c0.4,0,0.9,0,1.3,0c0.2,0,0.3,0.1,0.3,0.3c0,0.4,0,0.8,0,1.2c0,0.4,0.3,0.6,0.7,0.6
		c0.4,0,0.6-0.3,0.6-0.7c0-0.6,0-1.3,0-1.9c0-0.7,0-1.3,0-2c0-0.4-0.2-0.7-0.6-0.7c-0.3,0-0.6,0.2-0.7,0.6c-0.1,0.4-0.1,0.7,0,1.1
		c0,0.3-0.1,0.3-0.3,0.3c-0.4,0-0.8,0-1.2,0c-0.2,0-0.3-0.1-0.3-0.3C18.2,13.4,18.1,13.1,18.1,12.7z"/>
	<path d="M14.5,16.5c0,0.1,0,0.3,0,0.4c0.1,0.3,0.3,0.5,0.6,0.5c0.3,0,0.5-0.2,0.6-0.5c0-0.1,0-0.3,0-0.5c0-0.1,0-0.2,0.2-0.3
		c0.2,0,0.4-0.2,0.4-0.4c0-0.3-0.2-0.4-0.4-0.5c-0.2,0-0.2-0.1-0.2-0.3c0-0.4,0-0.8,0-1.2h0c0-0.4,0-0.8,0-1.2c0-0.2,0-0.3-0.2-0.3
		c-0.7-0.2-1.3,0-1.7,0.6c-0.4,0.7-0.9,1.5-1.3,2.2c-0.1,0.1-0.1,0.3-0.2,0.4c-0.1,0.5,0.1,0.7,0.5,0.7c0.5,0,0.9,0,1.4,0
		C14.4,16.1,14.5,16.2,14.5,16.5z M13.7,15.2c-0.2,0-0.2,0-0.1-0.2c0.3-0.5,0.6-1,0.9-1.6c0,0.5,0,1,0,1.5c0,0.2-0.1,0.2-0.2,0.2
		C14.1,15.2,13.9,15.2,13.7,15.2z"/>
	<path d="M11.1,16.3c-0.4,0-0.8,0-1.2,0c0.2-0.2,0.3-0.3,0.5-0.4c0.4-0.4,0.8-0.8,1.1-1.3c0.4-0.8,0.2-1.6-0.3-2.1
		C10.5,12,9.2,12,8.6,12.5c-0.3,0.2-0.4,0.4-0.2,0.6c0.1,0.2,0.3,0.3,0.7,0.2c0.2-0.1,0.4-0.2,0.7-0.1c0.5,0,0.8,0.4,0.7,0.9
		c-0.1,0.5-0.5,0.9-0.8,1.2c-0.4,0.4-0.8,0.8-1.2,1.2c-0.2,0.2-0.2,0.4-0.1,0.7c0,0.2,0.2,0.2,0.3,0.2c0.9,0,1.8,0,2.7,0
		c0.4,0,0.6-0.2,0.6-0.5C11.7,16.5,11.5,16.3,11.1,16.3z"/>
</g>
</svg>
