<?xml version="1.0" encoding="utf-8"?>
<!-- Generator: Adobe Illustrator 21.0.0, SVG Export Plug-In . SVG Version: 6.00 Build 0)  -->
<svg version="1.1" id="Layer_1" xmlns="http://www.w3.org/2000/svg" xmlns:xlink="http://www.w3.org/1999/xlink" x="0px" y="0px"
	 viewBox="0 0 24 25.8" style="enable-background:new 0 0 24 25.8;" xml:space="preserve">
<g id="doaZq5.tif">
	<g>
		<path d="M19.6,3.1c0,0.2,0,0.4,0,0.6c0,0.7-0.5,1-1,1c-0.1,0-0.1,0-0.1-0.1c0,0,0-0.1,0-0.1c0-1.5,0-2.9,0-4.4
			c0-0.2,0-0.2,0.2-0.2c0.2,0,0.5,0.1,0.6,0.3c0.2,0.2,0.3,0.4,0.3,0.7c0,0.2,0,0.5,0,0.7c0,0.1,0,0.2,0.2,0.2c1,0,1.9,0,2.9,0
			c0.7,0,1.4,0.6,1.4,1.4c0,2.1,0,4.3,0,6.4c0,5,0,9.9,0,14.9c0,0.6-0.3,1-0.8,1.2c-0.2,0.1-0.3,0.1-0.5,0.1c-1.7,0-3.4,0-5.2,0
			c-2.9,0-5.7,0-8.6,0c-2.5,0-5.1,0-7.6,0c-0.7,0-1.3-0.6-1.3-1.3c0-2.6,0-5.1,0-7.7c0-2.6,0-5.3,0-7.9C0,7,0,5.1,0,3.2
			c0-0.7,0.6-1.3,1.3-1.3c1,0,1.9,0,2.9,0c0.2,0,0.2,0,0.2,0.2c0,0.3,0,0.6,0,0.9c0,0.1,0,0.2-0.1,0.2C3.9,3.8,4,4.5,4.5,5
			c0.7,0.6,1.8,0.4,2.2-0.4c0.2-0.5,0.2-0.9,0-1.4c0,0,0,0,0-0.1c0,0,0,0-0.1,0c0,0.2,0,0.4,0,0.5c0,0.6-0.4,1-0.9,1
			c-0.3,0-0.3,0-0.3-0.2c0-1.5,0-2.9,0-4.4C5.5,0,5.5,0,5.6,0c0.4,0,0.7,0.2,0.9,0.5c0.1,0.1,0.1,0.3,0.1,0.5c0,0.2,0,0.5,0,0.7
			c0,0.2,0,0.2,0.2,0.2c1,0,2,0,3,0c2.5,0,5,0,7.5,0c0.2,0,0.2,0,0.2,0.2c0,0.3,0,0.6,0,0.9c0,0.1,0,0.2-0.1,0.2
			c-0.4,0.5-0.4,1.2,0,1.7c0.3,0.5,1,0.7,1.6,0.5c0.9-0.3,1.3-1.3,0.8-2.1C19.7,3.2,19.7,3.2,19.6,3.1z M12,24c3.4,0,6.8,0,10.2,0
			c0.2,0,0.2,0,0.2-0.2c0-1.1,0-2.3,0-3.4c0-1.9,0-3.9,0-5.8c0-1,0-2.1,0-3.1c0-1.3,0-2.6,0-4c0-0.3,0-0.3-0.3-0.3
			c-4.7,0-9.4,0-14,0c-2.1,0-4.1,0-6.2,0c-0.2,0-0.2,0-0.2,0.2c0,2.5,0,4.9,0,7.4c0,2.8,0,5.7,0,8.5c0,0.1,0,0.3,0,0.4
			c0,0.1,0,0.2,0.1,0.1c0,0,0.1,0,0.1,0C5.3,24,8.6,24,12,24z"/>
		<path d="M2.8,20.9c0-0.6,0-1.2,0-1.8c0-0.1,0-0.2,0.2-0.2c1.2,0,2.4,0,3.6,0c0.2,0,0.2,0,0.2,0.2c0,1.2,0,2.4,0,3.6
			c0,0.1,0,0.2-0.2,0.2c-0.8,0-1.7,0-2.5,0c-0.4,0-0.7,0-1.1,0c-0.2,0-0.2,0-0.2-0.2C2.8,22.1,2.8,21.5,2.8,20.9z"/>
		<path d="M16.4,20.9c0,0.6,0,1.2,0,1.8c0,0.2,0,0.2-0.2,0.2c-1.1,0-2.2,0-3.2,0c-0.1,0-0.2,0-0.3,0c-0.1,0-0.2,0-0.2-0.2
			c0-0.4,0-0.7,0-1.1c0-0.8,0-1.6,0-2.5c0-0.2,0-0.2,0.2-0.2c0.9,0,1.7,0,2.6,0c0.3,0,0.6,0,0.9,0c0.1,0,0.1,0,0.1,0.1
			C16.3,19.7,16.4,20.3,16.4,20.9z"/>
		<path d="M7.6,20.9c0-0.6,0-1.2,0-1.8c0-0.1,0-0.2,0.2-0.2c1.2,0,2.4,0,3.6,0c0.1,0,0.2,0,0.2,0.1c0,1.2,0,2.4,0,3.6
			c0,0.1,0,0.1-0.1,0.1c-1.2,0-2.4,0-3.6,0c-0.2,0-0.2,0-0.2-0.2C7.6,22.1,7.6,21.5,7.6,20.9z"/>
		<path d="M14.4,13.2c-0.6,0-1.2,0-1.8,0c-0.2,0-0.2,0-0.2-0.2c0-1.2,0-2.4,0-3.5c0-0.2,0-0.2,0.2-0.2c1,0,1.9,0,2.9,0
			c0.2,0,0.4,0,0.7,0c0.1,0,0.1,0,0.1,0.1c0,1.2,0,2.4,0,3.6c0,0.1-0.1,0.1-0.1,0.1C15.6,13.2,15,13.2,14.4,13.2z"/>
		<path d="M4.7,9.3c0.6,0,1.2,0,1.7,0c0.2,0,0.2,0,0.2,0.2c0,1.1,0,2.3,0,3.4c0,0.2,0,0.2-0.2,0.2c-1.1,0-2.2,0-3.3,0
			c-0.3,0-0.3,0-0.3-0.3c0-1.1,0-2.3,0-3.4c0-0.2,0-0.2,0.2-0.2C3.6,9.3,4.1,9.3,4.7,9.3L4.7,9.3z"/>
		<path d="M2.8,16.1c0-0.6,0-1.2,0-1.8c0-0.1,0-0.2,0.2-0.2c1.2,0,2.4,0,3.6,0c0.2,0,0.2,0,0.2,0.2c0,0.3,0,0.7,0,1
			c0,0.8,0,1.7,0,2.5c0,0.1,0,0.1-0.1,0.1c-0.1,0-0.1,0-0.2,0c-1.1,0-2.2,0-3.4,0c-0.2,0-0.2,0-0.2-0.2C2.8,17.3,2.8,16.7,2.8,16.1z
			"/>
		<path d="M7.6,16.1c0-0.6,0-1.2,0-1.8c0-0.2,0-0.2,0.2-0.2c1.2,0,2.4,0,3.5,0c0.2,0,0.2,0,0.2,0.2c0,1.2,0,2.4,0,3.5
			c0,0.2,0,0.2-0.2,0.2c-0.9,0-1.7,0-2.6,0c-0.3,0-0.7,0-1,0c-0.1,0-0.1,0-0.1-0.1C7.6,17.3,7.6,16.7,7.6,16.1L7.6,16.1z"/>
		<path d="M21.2,16.1c0,0.6,0,1.2,0,1.8c0,0.1,0,0.2-0.2,0.2c-1.2,0-2.4,0-3.6,0c-0.1,0-0.2,0-0.2-0.2c0-1.2,0-2.4,0-3.6
			c0-0.1,0-0.2,0.2-0.2c1.2,0,2.4,0,3.6,0c0.2,0,0.2,0,0.2,0.2C21.2,14.9,21.2,15.5,21.2,16.1z"/>
		<path d="M16.4,16.1c0,0.6,0,1.2,0,1.8c0,0.1,0,0.1-0.1,0.1c-0.2,0-0.5,0-0.7,0c-0.9,0-1.9,0-2.8,0c-0.2,0-0.2,0-0.2-0.2
			c0-1.2,0-2.3,0-3.5c0-0.2,0-0.2,0.2-0.2c1.2,0,2.3,0,3.5,0c0.2,0,0.2,0,0.2,0.2C16.4,14.9,16.4,15.5,16.4,16.1z"/>
		<path d="M7.6,11.2c0-0.6,0-1.2,0-1.8c0-0.2,0-0.2,0.2-0.2c1.2,0,2.4,0,3.5,0c0.2,0,0.2,0,0.2,0.2c0,1.2,0,2.4,0,3.5
			c0,0.2,0,0.2-0.2,0.2c-1.2,0-2.4,0-3.5,0c-0.2,0-0.2,0-0.2-0.2C7.6,12.4,7.6,11.8,7.6,11.2z"/>
		<path d="M21.2,11.2c0,0.6,0,1.2,0,1.8c0,0.1,0,0.1-0.1,0.1c-1.2,0-2.3,0-3.5,0c-0.2,0-0.2,0-0.2-0.2c0-1.2,0-2.3,0-3.5
			c0-0.2,0-0.2,0.2-0.2c1.2,0,2.3,0,3.5,0c0.2,0,0.2,0,0.2,0.2C21.2,10.1,21.2,10.7,21.2,11.2z"/>
		<path d="M21.6,20.3c0,0.1-0.1,0.1-0.1,0.1c-0.4,0.4-0.8,0.8-1.2,1.2c-0.4,0.4-0.7,0.7-1.1,1.1c-0.2,0.2-0.2,0.2-0.3,0
			c-0.5-0.5-1-1.1-1.6-1.6c-0.1-0.1-0.1-0.1,0-0.2c0.2-0.2,0.4-0.4,0.7-0.7c0.1-0.1,0.1-0.1,0.2,0c0.2,0.3,0.5,0.5,0.8,0.8
			c0.1,0.1,0.1,0.1,0.2,0c0.5-0.5,1-1,1.5-1.5c0.1-0.1,0.1-0.1,0.2,0C21.1,19.8,21.3,20,21.6,20.3C21.5,20.3,21.5,20.3,21.6,20.3z"
			/>
	</g>
</g>
</svg>
