<?xml version="1.0" encoding="utf-8"?>
<!-- Generator: Adobe Illustrator 21.0.0, SVG Export Plug-In . SVG Version: 6.00 Build 0)  -->
<svg version="1.1" id="Layer_1" xmlns="http://www.w3.org/2000/svg" xmlns:xlink="http://www.w3.org/1999/xlink" x="0px" y="0px"
	 viewBox="0 0 17 22.3" style="enable-background:new 0 0 17 22.3;" xml:space="preserve">
<path d="M17,9c-0.4-1.1-1.3-1.6-2.4-1.6c-0.5,0-0.7-0.2-0.7-0.7c0-1,0.1-1.9-0.2-2.9C12.8,1,10.1-0.2,8,0C5.2,0.4,3.2,2.6,3.2,5.3
	c0,0.5,0,0.9,0,1.4S3,7.4,2.5,7.4C1.1,7.4,0.3,8,0.1,9.1C0,9.4,0,9.7,0,10c0,3.2,0,6.4,0,9.7c0,1.3,0.5,2.2,1.7,2.6
	c4.9,0,9.9,0,14.8,0c0.4,0,0.5-0.1,0.5-0.5C17,17.5,17,13.3,17,9z M5.4,5.2c0.1-1.7,1.4-3,3.2-3c1.7,0,3,1.3,3.1,3
	c0,0.4,0,0.9,0,1.3c0,0.6-0.2,0.8-0.8,0.8c-0.8,0-1.6,0-2.4,0s-1.6,0-2.4,0c-0.5,0-0.7-0.2-0.7-0.7C5.4,6.2,5.4,5.7,5.4,5.2z
	 M5,16.5c-0.2,0.2-0.3,0.1-0.5,0c-0.5-0.5-1-0.9-1.6-1.4C3,15,3,14.9,3.1,14.9s0.2,0,0.3,0c0.7,0.1,0.9-0.2,1-0.9
	c0.4-2.5,3.2-4.1,5.5-3.1c0.2,0.1,0.5,0.1,0.4,0.4c-0.1,0.3-0.4,0.5-0.8,0.4c-0.7-0.2-1.4-0.3-2-0.1c-1.2,0.4-2,1.2-2.3,2.4
	c-0.2,0.7-0.1,0.8,0.6,0.9c0.2,0,0.3-0.1,0.6,0.2C6,15.5,5.5,16,5,16.5z M13.9,14.6c-1-0.1-1.2,0.4-1.4,1.3
	c-0.6,2.4-3.2,3.6-5.4,2.7c-0.2-0.1-0.6-0.1-0.4-0.5c0.1-0.3,0.4-0.5,0.8-0.4c0.7,0.3,1.3,0.3,2,0.1c1.2-0.4,2-1.2,2.3-2.4
	c0.2-0.7,0.1-0.8-0.6-0.8c-0.2,0-0.3,0-0.5,0c0-0.1-0.1-0.1-0.1-0.2c0.5-0.5,1.1-1,1.6-1.5c0.2-0.2,0.3-0.2,0.5,0
	c0.5,0.5,1,1,1.5,1.4C14,14.5,13.9,14.6,13.9,14.6z"/>
</svg>
