<?xml version="1.0" encoding="utf-8"?>
<!-- Generator: Adobe Illustrator 21.0.0, SVG Export Plug-In . SVG Version: 6.00 Build 0)  -->
<svg version="1.1" id="Layer_1" xmlns="http://www.w3.org/2000/svg" xmlns:xlink="http://www.w3.org/1999/xlink" x="0px" y="0px"
	 viewBox="0 0 22 28" style="enable-background:new 0 0 22 28;" xml:space="preserve">
<g>
	<path d="M10.6,10.2C10.3,10,9.9,9.9,9.6,9.7C9.3,9.6,9.3,9.6,9.3,9.9c0,0.5,0,1,0,1.5c0,0.2-0.1,0.3-0.3,0.2
		c-0.3-0.2-0.6-0.4-1-0.5c-0.1-0.1-0.2-0.2-0.2-0.3c-0.1-0.4-0.1-0.8-0.1-1.2c0-0.5-0.1-0.8-0.6-1C6.9,8.4,6.6,8.3,6.4,8.1
		C6.2,8,6.2,8.1,6.2,8.3c0.1,1.7,0.3,3.4,0.4,5.2c0,0.2,0.1,0.4,0.3,0.5c1.2,0.6,2.4,1.3,3.7,2c0.3,0.2,0.4,0.2,0.4-0.2
		c0-0.8,0-1.6,0-2.5c0-0.8,0-1.7,0-2.5C10.9,10.4,10.8,10.3,10.6,10.2z"/>
	<path d="M8.6,8c1.2-0.5,2.4-1,3.7-1.4c0.1,0,0.2,0,0.3-0.2c-0.2-0.1-0.5-0.1-0.7-0.2c-0.4-0.2-0.7-0.1-1.1,0C9.9,6.4,9.1,6.7,8.2,7
		C7.8,7.1,7.4,7.3,6.9,7.4c0,0,0,0.1,0,0.1c0.3,0.2,0.6,0.3,1,0.5C8.1,8.1,8.4,8.1,8.6,8z"/>
	<path d="M15.7,7.5C15.7,7.5,15.7,7.4,15.7,7.5c-0.5-0.2-0.9-0.4-1.4-0.5c-0.1,0-0.2,0-0.2,0c-1.3,0.6-2.7,1.2-4,1.8
		c-0.2,0.1-0.2,0.2,0,0.2c0.3,0.2,0.7,0.3,1,0.5c0.2,0.1,0.4,0.1,0.6,0c0.8-0.4,1.7-0.8,2.5-1.2C14.7,8,15.2,7.7,15.7,7.5z"/>
	<path d="M21.4,7.4c-1.8-5.1-7-8.1-12.3-7.2c-3,0.5-5.4,2-7.1,4.5c-1.4,2-2.1,4.3-2,6.8c0,1.3,0.3,2.5,0.7,3.7c0.8,2,2,3.7,3.4,5.3
		c1.2,1.4,2.4,2.8,3.7,4.2c1,1.1,2,2.2,3,3.2c0.1,0.1,0.2,0.2,0.4,0c0.1-0.2,0.3-0.4,0.5-0.5c2.1-2.4,4.1-4.8,6.1-7.2
		c1.3-1.5,2.4-3.1,3.3-4.9c0.6-1.3,1-2.7,1-4.3C22,9.7,21.8,8.5,21.4,7.4z M17.2,8.4c-0.1,1.8-0.2,3.6-0.4,5.4
		c0,0.3-0.2,0.6-0.5,0.7c-1.3,0.7-2.6,1.4-3.9,2.1c-0.4,0.2-0.8,0.4-1.2,0.6c0,0,0,0-0.1,0c-1.7-0.9-3.4-1.8-5.1-2.7
		c-0.2-0.1-0.4-0.3-0.4-0.5c-0.1-1.4-0.2-2.8-0.3-4.2C5.4,9,5.4,8.3,5.3,7.5c0-0.1,0-0.2,0-0.3C5.4,7.1,5.5,7,5.7,6.9
		C7.5,6.4,9.3,5.8,11,5.2c0.2-0.1,0.4-0.1,0.6,0c1.8,0.6,3.6,1.1,5.4,1.7c0.2,0.1,0.4,0.2,0.4,0.5C17.3,7.8,17.3,8.1,17.2,8.4z"/>
	<path d="M16.1,8.2c-1.4,0.7-2.7,1.3-4.1,2c-0.2,0.1-0.3,0.2-0.3,0.5c0,0.8,0,1.7,0,2.5c0,0.8,0,1.7,0,2.5c0,0.3,0,0.4,0.3,0.2
		c1.3-0.7,2.5-1.4,3.8-2c0.2-0.1,0.3-0.2,0.3-0.4c0-0.5,0.1-1.1,0.1-1.6c0.1-1.1,0.2-2.3,0.2-3.4C16.4,8.1,16.4,8.1,16.1,8.2z"/>
</g>
</svg>
