<?xml version="1.0" encoding="utf-8"?>
<!-- Generator: Adobe Illustrator 21.0.0, SVG Export Plug-In . SVG Version: 6.00 Build 0)  -->
<svg version="1.1" id="Layer_1" xmlns="http://www.w3.org/2000/svg" xmlns:xlink="http://www.w3.org/1999/xlink" x="0px" y="0px"
	 viewBox="0 0 22 28" style="enable-background:new 0 0 22 28;" xml:space="preserve">
<g>
	<g>
		<path d="M10.8,17.2c-0.3-0.1-0.5-0.3-0.8-0.4c-0.2-0.1-0.2,0-0.2,0.1c0,0.4,0,0.7,0,1.1c0,0.2-0.1,0.2-0.2,0.1
			c-0.2-0.1-0.5-0.3-0.7-0.4c-0.1-0.1-0.1-0.1-0.2-0.2c0-0.3-0.1-0.6,0-0.9c0-0.4-0.1-0.6-0.5-0.7c-0.2-0.1-0.4-0.2-0.5-0.3
			c-0.1-0.1-0.2-0.1-0.2,0.1c0.1,1.3,0.2,2.6,0.3,3.9c0,0.2,0.1,0.3,0.2,0.4c0.9,0.5,1.8,1,2.7,1.5c0.2,0.1,0.3,0.1,0.3-0.2
			c0-0.6,0-1.2,0-1.8c0-0.6,0-1.3,0-1.9C11,17.3,11,17.2,10.8,17.2z"/>
		<path d="M9.3,15.5c0.9-0.4,1.8-0.7,2.8-1.1c0.1,0,0.2,0,0.2-0.1c-0.2-0.1-0.4-0.1-0.5-0.2c-0.3-0.1-0.5-0.1-0.8,0
			c-0.6,0.2-1.3,0.4-1.9,0.6c-0.3,0.1-0.7,0.2-1,0.3c0,0,0,0,0,0.1c0.2,0.1,0.5,0.2,0.7,0.4C8.9,15.6,9.1,15.6,9.3,15.5z"/>
		<path d="M14.6,15.1C14.6,15.1,14.6,15.1,14.6,15.1c-0.3-0.2-0.7-0.3-1-0.4c-0.1,0-0.1,0-0.2,0c-1,0.4-2,0.9-3,1.4
			c-0.1,0.1-0.1,0.1,0,0.2c0.2,0.1,0.5,0.2,0.7,0.4c0.1,0.1,0.3,0.1,0.4,0c0.6-0.3,1.3-0.6,1.9-0.9C13.8,15.5,14.2,15.3,14.6,15.1z"
			/>
		<path d="M14.9,15.7c-1,0.5-2,1-3.1,1.5c-0.2,0.1-0.2,0.2-0.2,0.4c0,0.6,0,1.2,0,1.9c0,0.6,0,1.3,0,1.9c0,0.2,0,0.3,0.2,0.2
			c0.9-0.5,1.9-1,2.8-1.5c0.1-0.1,0.2-0.2,0.2-0.3c0-0.4,0.1-0.8,0.1-1.2c0.1-0.9,0.1-1.7,0.2-2.6C15.2,15.6,15.1,15.6,14.9,15.7z"
			/>
		<path d="M21.4,7.4c-1.8-5.1-7-8.1-12.3-7.2c-3,0.5-5.4,2-7.1,4.5c-1.4,2-2.1,4.3-2,6.8c0,1.3,0.3,2.5,0.7,3.7c0.8,2,2,3.7,3.4,5.3
			c1.2,1.4,2.4,2.8,3.7,4.2c1,1.1,2,2.2,3,3.2c0.1,0.1,0.2,0.2,0.4,0c0.1-0.2,0.3-0.4,0.5-0.5c2.1-2.4,4.1-4.8,6.1-7.2
			c1.3-1.5,2.4-3.1,3.3-4.9c0.6-1.3,1-2.7,1-4.3C22,9.7,21.8,8.5,21.4,7.4z M15.8,15.8c-0.1,1.3-0.2,2.7-0.3,4
			c0,0.3-0.1,0.4-0.4,0.5c-1,0.5-2,1-2.9,1.6c-0.3,0.2-0.6,0.3-0.9,0.4c0,0,0,0-0.1,0c-1.3-0.7-2.5-1.4-3.8-2
			c-0.2-0.1-0.3-0.2-0.3-0.4c-0.1-1-0.1-2.1-0.2-3.1c0-0.6-0.1-1.1-0.1-1.7c0-0.1,0-0.1,0-0.2c0.1-0.1,0.2-0.2,0.3-0.2
			c1.3-0.4,2.6-0.8,4-1.3c0.1,0,0.3-0.1,0.4,0c1.3,0.4,2.7,0.9,4,1.3c0.2,0.1,0.3,0.2,0.3,0.4C15.8,15.3,15.8,15.6,15.8,15.8z
			 M11.9,10.3c0.8-0.4,1.6-0.8,2.3-1.2c0.1-0.1,0.2,0,0.2,0.1c0.3,0.6,0.7,1.2,1,1.7c0,0.1-0.1,0.8-0.2,0.8c-0.1,0.1-0.1,0-0.2,0
			C14.1,11.3,13,10.8,11.9,10.3z M17.6,5.8c-0.2,0.2-0.5,0.4-0.8,0.6C15.4,7.2,14,8,12.5,8.7c-2.2,1.1-4.3,2.2-6.5,3.3
			c-0.2,0.1-0.4,0.1-0.6,0c-0.9-0.6-1.9-1.2-2.9-1.8c-0.3-0.2-0.3-0.2,0-0.3c0.2-0.1,0.4-0.3,0.6-0.3c0.3,0.1,0.6,0.2,0.9,0.3
			C4.6,10,5,10.2,5.4,10.3c0.1,0,0.3,0,0.4,0c0.9-0.5,1.9-1,2.8-1.4c0.3-0.1,0.1-0.2,0-0.3c-1-0.7-2-1.4-3-2.1
			c-0.3-0.2-0.3-0.2,0-0.4c0.9-0.5,0.9-0.5,1.9-0.2c1.3,0.4,2.7,0.7,4,1.1c0.2,0,0.3,0,0.4,0c1.1-0.6,2.2-1.1,3.4-1.7
			c0.4-0.2,0.8-0.4,1.3-0.4c0.4-0.1,0.7,0,1,0.3C17.8,5.4,17.8,5.6,17.6,5.8z"/>
	</g>
</g>
</svg>
