<?xml version="1.0" encoding="utf-8"?>
<!-- Generator: Adobe Illustrator 21.0.0, SVG Export Plug-In . SVG Version: 6.00 Build 0)  -->
<svg version="1.1" id="Layer_1" xmlns="http://www.w3.org/2000/svg" xmlns:xlink="http://www.w3.org/1999/xlink" x="0px" y="0px"
	 viewBox="0 0 24 22.1" style="enable-background:new 0 0 24 22.1;" xml:space="preserve">
<g>
	<path d="M0,21c0.1-0.2,0.2-0.4,0.4-0.6c0.2-0.1,0.3-0.2,0.5-0.2c7.4,0,14.7,0,22.1,0c0.4,0,0.8,0.2,0.9,0.6
		c0.2,0.6-0.3,1.2-0.9,1.2c0,0-0.1,0-0.1,0c-7.3,0-14.6,0-21.8,0c-0.1,0-0.2,0-0.3,0C0.4,22,0.1,21.7,0,21.4c0,0,0,0,0-0.1
		C0,21.2,0,21.1,0,21z"/>
	<path d="M0.9,4.9c0.2,0,0.5,0,0.7,0.2c0.1,0.1,0.3,0.2,0.4,0.3C2.4,5.7,2.8,6,3.2,6.3c0.1,0.1,0.3,0.2,0.4,0.3
		c0.3,0.3,0.7,0.3,1,0.1C5.5,6.4,6.3,6,7.1,5.7c1-0.4,2-0.9,3-1.3c0.9-0.4,1.7-0.8,2.6-1.2c0.9-0.4,1.7-0.8,2.6-1.2
		c0.8-0.4,1.6-0.7,2.5-1.1c0.5-0.2,1-0.5,1.5-0.6C19.6,0.2,20,0.1,20.4,0c0.3,0,0.5-0.1,0.8,0c0.7,0,1.4,0.2,2,0.6
		c0.2,0.2,0.5,0.3,0.6,0.6c0.1,0.1,0.1,0.2,0,0.3c-0.2,0.2-0.4,0.4-0.6,0.5c-0.5,0.4-1,0.7-1.6,1c-0.7,0.4-1.4,0.8-2.1,1.1
		c-0.8,0.4-1.6,0.8-2.5,1.2c-0.1,0-0.1,0.1-0.2,0.2c-0.2,0.5-0.4,0.9-0.7,1.4c-0.4,0.8-0.7,1.6-1.1,2.4c-0.2,0.5-0.5,1.1-0.7,1.6
		c-0.4,0.8-0.7,1.6-1.1,2.4c-0.2,0.4-0.3,0.7-0.6,1c-0.2,0.3-0.4,0.5-0.7,0.7c-0.2,0.1-0.4,0.2-0.7,0.3c-0.1,0-0.2,0.1-0.3,0.1
		c-0.1,0.1-0.2,0-0.3-0.1c0-0.1,0-0.2,0-0.3c0.1-0.5,0.2-1,0.3-1.5c0.1-0.8,0.3-1.6,0.4-2.3c0.1-0.8,0.3-1.5,0.4-2.3
		c0.1-0.4,0.2-0.8,0.2-1.2c0,0,0,0,0,0c0,0,0,0,0,0c-0.7,0.3-1.3,0.6-2,0.9C9.4,8.7,8.6,9,7.8,9.3C7.1,9.6,6.3,9.8,5.6,10
		c-0.4,0.1-0.9,0.2-1.3,0.2c-0.5,0.1-1,0.1-1.5,0c-0.2-0.1-0.5-0.2-0.7-0.3C2,9.8,1.9,9.6,1.8,9.4C1.4,8.5,1,7.6,0.6,6.7
		C0.4,6.3,0.3,6,0.1,5.7C0,5.3,0.1,5.1,0.4,4.9C0.6,4.9,0.7,4.9,0.9,4.9z"/>
	<path d="M11.9,2.5c-0.2,0.1-0.3,0.1-0.5,0.2c-0.5,0.2-1.1,0.5-1.6,0.7C9.4,3.6,9,3.8,8.5,4C8.5,4,8.4,4,8.4,4c-1-0.6-2-1.2-2.9-1.8
		C5.3,2.1,5.1,2,5,1.9C4.9,1.8,4.9,1.8,4.8,1.7c0-0.1,0-0.2,0.1-0.2c0.3-0.1,0.5-0.3,0.8-0.4C5.8,1,6,1,6.2,1c0.4,0,0.8,0,1.2,0
		C7.7,1.1,8,1.2,8.2,1.3c1.2,0.4,2.4,0.8,3.6,1.1C11.9,2.4,11.9,2.4,11.9,2.5z"/>
</g>
</svg>
