<?xml version="1.0" encoding="utf-8"?>
<!-- Generator: Adobe Illustrator 21.0.0, SVG Export Plug-In . SVG Version: 6.00 Build 0)  -->
<svg version="1.1" id="Layer_1" xmlns="http://www.w3.org/2000/svg" xmlns:xlink="http://www.w3.org/1999/xlink" x="0px" y="0px"
	 viewBox="0 0 24 22.9" style="enable-background:new 0 0 24 22.9;" xml:space="preserve">
<g id="z64100.tif_1_">
	<g>
		<path d="M3.1,0c0.4,0.1,0.6,0.3,0.8,0.6C4,0.8,4,0.9,4,1.1c0.1,0.5,0.2,1,0.2,1.5c0,0.3,0.1,0.6,0.1,0.9C4.5,3.8,4.5,4,4.7,4.1
			C4.8,4.2,4.9,4.3,5,4.3c1.2,0.4,2.5,0.9,3.7,1.3c0.9,0.3,1.7,0.6,2.6,0.9c1.3,0.5,2.6,0.9,3.9,1.4C16.1,8.3,17,8.7,18,9
			c0.6,0.2,1.2,0.4,1.8,0.7c0.7,0.3,1.4,0.7,1.9,1.2c0.5,0.5,1,1.1,1.2,1.9c0.1,0.3,0.2,0.7,0.1,1c0,0.1-0.1,0.2-0.2,0.2
			c-0.2,0-0.4,0-0.6,0c-1-0.1-2-0.4-2.9-0.7c-0.9-0.3-1.8-0.5-2.6-0.8c-0.5-0.2-1-0.3-1.6-0.5c-0.1,0-0.1,0-0.2,0
			c-1.4,0.6-2.8,1.1-4.2,1.7c-1.5,0.6-2.9,1.2-4.4,1.7c-0.5,0.2-0.9,0.3-1.4,0.2c-0.1,0-0.3,0-0.4-0.1c-0.3-0.1-0.5-0.2-0.8-0.3
			c0,0,0,0-0.1,0c-0.1-0.1-0.1-0.2-0.1-0.3c0.1-0.1,0.2-0.2,0.3-0.3c0.5-0.4,1-0.8,1.6-1.1c0.9-0.6,1.7-1.3,2.6-1.9
			c0.6-0.4,1.2-0.9,1.8-1.3c0,0,0,0,0.1-0.1c-0.1,0-0.2-0.1-0.2-0.1c-1-0.3-1.9-0.7-2.8-1C6,8.7,5.1,8.3,4.2,7.9
			C3.5,7.5,2.9,7.1,2.3,6.6c-0.4-0.3-0.7-0.6-1-1C1.1,5.4,1,5.2,1,5c0-0.2,0-0.4,0-0.5c0.4-1,0.7-2,1.1-3c0.1-0.4,0.2-0.7,0.4-1.1
			C2.5,0.2,2.6,0.1,2.9,0C2.9,0,3,0,3.1,0z"/>
		<path d="M11.9,22.9c-3.6,0-7.3,0-10.9,0c-0.2,0-0.3,0-0.5-0.1c-0.2-0.1-0.4-0.2-0.5-0.4c0,0,0-0.1,0-0.1c0-0.2,0-0.5,0-0.7
			c0,0,0-0.1,0-0.1c0.2-0.3,0.5-0.5,0.8-0.5c7.4,0,14.8,0,22.2,0c0.5,0,0.9,0.3,1,0.7c0.1,0.6-0.3,1.1-0.9,1.1c-1.9,0-3.7,0-5.6,0
			C15.6,22.9,13.8,22.9,11.9,22.9z"/>
		<path d="M8.6,0.8c0-0.3,0.1-0.3,0.3-0.3c0.3,0.1,0.5,0.2,0.8,0.3C9.9,0.9,10,1,10.2,1.1C10.6,1.5,11,2,11.3,2.5
			c0.4,0.8,0.9,1.5,1.3,2.3c0.2,0.4,0.5,0.9,0.7,1.3c0,0,0.1,0.1,0,0.1c0,0-0.1,0-0.1,0c-0.5-0.2-1-0.4-1.6-0.5
			C11,5.4,10.3,5.2,9.7,5c-0.1,0-0.1,0-0.1-0.1C9.4,4.3,9.3,3.6,9.1,3C9,2.4,8.8,1.9,8.7,1.3C8.6,1.1,8.6,0.9,8.6,0.8z"/>
		<path d="M18.3,14.2c0,0.7-0.6,1.2-1.2,1.2c-0.7,0-1.2-0.5-1.2-1.2c0-0.7,0.5-1.2,1.2-1.2C17.7,12.9,18.3,13.5,18.3,14.2z"/>
	</g>
</g>
</svg>
