<?xml version="1.0" encoding="utf-8"?>
<!-- Generator: Adobe Illustrator 21.0.0, SVG Export Plug-In . SVG Version: 6.00 Build 0)  -->
<svg version="1.1" id="Layer_1" xmlns="http://www.w3.org/2000/svg" xmlns:xlink="http://www.w3.org/1999/xlink" x="0px" y="0px"
	 viewBox="0 0 10 5.7" style="enable-background:new 0 0 10 5.7;" xml:space="preserve">
<g id="QPnfMu.tif_20_">
	<g>
		<g>
			<path d="M5,0c1.3,0,2.6,0,4,0c0.1,0,0.2,0,0.3,0C9.6,0,9.8,0.2,10,0.5c0.1,0.3,0,0.5-0.2,0.7C9.5,1.5,9.3,1.7,9,2
				C7.9,3.1,6.7,4.3,5.6,5.4c-0.4,0.4-0.8,0.4-1.2,0C3,4,1.7,2.7,0.3,1.3C0.1,1.1-0.1,0.9,0,0.6C0.1,0.2,0.4,0,0.8,0
				c0.6,0,1.3,0,1.9,0C3.5,0,4.3,0,5,0z"/>
		</g>
	</g>
</g>
</svg>
