<?xml version="1.0" encoding="utf-8"?>
<!-- Generator: Adobe Illustrator 21.0.0, SVG Export Plug-In . SVG Version: 6.00 Build 0)  -->
<svg version="1.1" id="Layer_1" xmlns="http://www.w3.org/2000/svg" xmlns:xlink="http://www.w3.org/1999/xlink" x="0px" y="0px"
	 viewBox="0 0 9.5 8.4" style="enable-background:new 0 0 9.5 8.4;" xml:space="preserve">
<path d="M8.8,0.8C8.3,0.3,7.6,0,6.9,0S5.5,0.3,5,0.8L4.8,1L4.5,0.8C4,0.3,3.3,0,2.6,0C1.9,0,1.3,0.3,0.8,0.8C0.3,1.3,0,1.9,0,2.6
	C0,3.3,0.3,4,0.8,4.5l3.8,3.8c0.1,0.1,0.1,0.1,0.2,0.1c0.1,0,0.1,0,0.2-0.1l3.8-3.8C9.2,4,9.5,3.3,9.5,2.6C9.5,1.9,9.3,1.3,8.8,0.8z
	"/>
</svg>
