<?xml version="1.0" encoding="utf-8"?>
<!-- Generator: Adobe Illustrator 21.0.0, SVG Export Plug-In . SVG Version: 6.00 Build 0)  -->
<svg version="1.1" id="Layer_1" xmlns="http://www.w3.org/2000/svg" xmlns:xlink="http://www.w3.org/1999/xlink" x="0px" y="0px"
	 viewBox="0 0 50.1 13.3" style="enable-background:new 0 0 50.1 13.3;" xml:space="preserve">
<style type="text/css">
	.st0{fill:url(#SVGID_1_);stroke:#FCD109;stroke-width:9.400000e-02;}
	.st1{fill:#F8F3B5;stroke:#F8F3B5;stroke-width:9.400000e-02;}
	.st2{fill:#F7B402;stroke:#F7B402;stroke-width:9.400000e-02;}
	.st3{fill:#BDA727;stroke:#BDA727;stroke-width:9.400000e-02;}
	.st4{fill:#F7E62D;stroke:#F7E62D;stroke-width:9.400000e-02;}
	.st5{fill:url(#SVGID_2_);stroke:#FCD109;stroke-width:9.400000e-02;}
	.st6{fill:url(#SVGID_3_);stroke:#FCD109;stroke-width:9.400000e-02;}
	.st7{fill:url(#SVGID_4_);stroke:#FCD109;stroke-width:9.400000e-02;}
	.st8{fill:#0D69B3;stroke:#0D69B3;stroke-width:9.400000e-02;}
	.st9{fill:#107BD4;stroke:#107BD4;stroke-width:9.400000e-02;}
	.st10{fill:#FFFFFF;stroke:#FFFFFF;stroke-width:9.400000e-02;}
	.st11{clip-path:url(#SVGID_6_);}
	.st12{fill:none;stroke:#D1D1D1;stroke-width:2;}
	.st13{fill:#107BD4;stroke:#107BD4;stroke-width:0.101;}
</style>
<g>
	
		<linearGradient id="SVGID_1_" gradientUnits="userSpaceOnUse" x1="43.2631" y1="63.8206" x2="43.2631" y2="74.7733" gradientTransform="matrix(1 0 0 1 0.14 -61.546)">
		<stop  offset="0" style="stop-color:#F7E830"/>
		<stop  offset="1" style="stop-color:#FDCB06"/>
	</linearGradient>
	<path class="st0" d="M50,2.3C50,2.3,50,2.3,50,2.3c-4.4-0.1-8.8-0.1-13.3-0.1c0,0,0,0,0,0c0,3.4,0,6.8,0,10.3
		c0,0.2,0.1,0.3,0.3,0.5c0,0,0,0,0,0c0.1,0.1,0.2,0.1,0.3,0.1c0.1,0,0.1,0,0.2,0H43c0.1,0,0.1,0,0.2,0c0,0,0,0,0,0c0,0,0,0,0,0
		c0.1-0.7,0.2-1.3,0.4-2l0-0.1c-0.5,0-1,0-1.5,0c-0.1,0-0.2,0-0.4,0c-0.2,0-0.4,0-0.6,0c-0.3,0-0.5,0-0.8,0c-0.2,0-0.4,0-0.6,0
		c-0.1,0-0.3,0-0.4,0c-0.2,0-0.4,0-0.7,0c-0.2,0-0.5,0-0.7,0c0,0,0,0,0,0c0.1,0,0.2,0,0.2,0c0.2,0,0.3,0,0.5,0c0.2,0,0.4,0,0.5,0
		c0.2,0,0.3,0,0.5,0c0.2,0,0.4,0,0.6,0c0.2,0,0.3,0,0.5,0c0.2,0,0.4,0,0.5,0c0.2,0,0.4,0,0.5,0c0-0.1,0-0.1,0-0.2c0,0-0.1,0-0.1,0
		c-0.4-0.1-0.8-0.1-1.2-0.2c0,0,0.1,0,0.1,0c0.3,0,0.6-0.1,0.9-0.1c0.1,0,0.1,0,0.2,0c0-0.1-0.1-0.2-0.1-0.3c-0.7-0.1-1.3-0.2-2-0.3
		c0.2,0,0.3,0,0.5-0.1l0,0c0.6-0.1,1.1-0.1,1.7-0.2c0.7,0,1.4,0,2.1,0c0,0,0.1,0,0.1,0C43.9,9,44,8.7,44,8.4
		c0.1-0.4,0.2-0.8,0.4-1.2c0.3-0.6,0.8-1.1,1.4-1.5c0.6-0.3,1.2-0.5,1.8-0.5c0.2,0,0.4,0,0.6,0c0.1,0,0.3,0.1,0.4,0.2
		c0.1,0.1,0.1,0.2,0.2,0.3C48.9,5.9,49,6.2,49,6.4c0,0.1,0,0.2,0,0.3c-0.1,0.1-0.2,0.1-0.3,0.2C48.4,7,48,6.9,47.6,7
		c-0.3,0.1-0.6,0.2-0.8,0.5c-0.2,0.3-0.3,0.6-0.4,1c-0.1,0.3-0.1,0.6-0.2,0.9c0.4,0,0.7,0,1.1,0c0.1,0,0.3,0.1,0.3,0.2
		c0.1,0.2,0.1,0.4,0,0.5c0,0.2-0.1,0.4-0.2,0.6c-0.1,0.2-0.2,0.3-0.4,0.4c-0.1,0-0.2,0-0.3,0c-0.3,0-0.6,0-0.9,0
		c-0.1,0.2-0.1,0.5-0.1,0.7c-0.1,0.5-0.2,0.9-0.2,1.4c0,0,0,0,0,0.1c0.1,0,0.3,0,0.4,0c1.1,0,2.2,0,3.3,0c0.1,0,0.2,0,0.3-0.1
		c0.1,0,0.1-0.1,0.2-0.1c0.1,0,0.1-0.1,0.1-0.1c0-0.1,0.1-0.2,0.1-0.3c0,0,0,0,0,0C50,9.2,50,5.8,50,2.3z"/>
	<path class="st1" d="M38.5,0.1c0.2-0.1,0.3,0,0.5,0c3,0,6.1,0,9.1,0c0.2,0,0.3,0.1,0.5,0.1c0.1,0.1,0.3,0.1,0.4,0.2
		c0,0,0,0,0.1,0.1c0,0.2,0,0.5,0,0.7c0,0.1,0,0.1,0,0.2c0,0,0.1,0,0.1,0.1c0.1,0.1,0.2,0.1,0.3,0.2C49.7,1.7,49.9,1.8,50,2
		c0,0,0,0.1,0,0.1c0,0.1,0,0.1,0,0.2c-4.4,0-8.8,0-13.2,0c0-0.1,0-0.1,0-0.2c0,0,0-0.1,0-0.1c0.2-0.1,0.4-0.2,0.6-0.4
		c0.1-0.1,0.2-0.1,0.3-0.2c0,0,0-0.1,0-0.1c0-0.3,0-0.5,0-0.8c0.1-0.1,0.2-0.1,0.3-0.1C38.1,0.2,38.3,0.1,38.5,0.1 M38.5,0.1
		c-0.2,0.1-0.5,0.2-0.7,0.3c0,0,0,0-0.1,0.1c0,0,0,0,0,0.1c0,0.2,0,0.4,0,0.7c0,0.1,0,0.1,0,0.2c0,0-0.1,0-0.1,0.1
		c-0.3,0.2-0.5,0.4-0.8,0.5c0,0-0.1,0.1-0.1,0.1c0,0,0,0.1,0,0.1c0.6,0,1.2,0,1.8,0c0.9,0,1.7,0,2.6,0l0,0c0,0,0.1,0,0.1,0
		c1.6,0,3.2,0,4.7,0c0.5,0,1,0,1.5,0c0.8,0,1.6,0,2.5,0c0,0,0,0,0-0.1C50,2,50,2,50,2c-0.1-0.1-0.2-0.2-0.4-0.2c0,0-0.1-0.1-0.1-0.1
		c-0.1-0.1-0.2-0.2-0.4-0.2c0,0,0,0-0.1-0.1c0,0,0-0.1,0-0.1c0-0.2,0-0.5,0-0.7c0,0,0-0.1,0-0.1c-0.2-0.1-0.4-0.2-0.7-0.2
		c-0.1,0-0.1-0.1-0.2-0.1h-9.5C38.6,0.1,38.6,0.1,38.5,0.1L38.5,0.1z"/>
	<path class="st2" d="M37.7,0.5c0.2,0.1,0.3,0.1,0.5,0.2c0.1,0,0.1,0.1,0.2,0.2c0,0-0.1,0.1-0.1,0.1c-0.2,0.1-0.3,0.2-0.5,0.3
		c0-0.1,0-0.1,0-0.2C37.7,0.9,37.7,0.7,37.7,0.5z M48.6,0.7c0.2-0.1,0.3-0.1,0.5-0.2c0,0.2,0,0.5,0,0.7c0,0,0,0.1,0,0.1
		c-0.1-0.1-0.3-0.2-0.4-0.3c-0.1-0.1-0.1-0.1-0.2-0.2C48.4,0.8,48.5,0.7,48.6,0.7L48.6,0.7z"/>
	<path class="st3" d="M40.6,0.7c0.2,0,0.4,0.1,0.4,0.3c0,0.2-0.2,0.4-0.4,0.3c-0.1,0-0.2-0.1-0.2-0.1c-0.1-0.1-0.1-0.2,0-0.3
		C40.4,0.8,40.5,0.8,40.6,0.7L40.6,0.7z M45.9,0.9c0.1-0.1,0.2-0.1,0.3-0.1c0.1,0,0.2,0.1,0.2,0.2c0.1,0.2,0,0.4-0.1,0.5
		c-0.1,0.1-0.3,0-0.4-0.1C45.8,1.2,45.8,1,45.9,0.9z"/>
	<path class="st4" d="M38.3,1c0,0,0.1-0.1,0.1-0.1l0,0c0,0.1,0,0.2,0,0.3c0,0.3,0,0.6,0,0.9c-0.5,0-1.1,0-1.6,0c0-0.1,0-0.1,0.1-0.1
		c0.3-0.2,0.5-0.4,0.8-0.5c0,0,0.1,0,0.1-0.1C37.9,1.2,38.1,1.1,38.3,1z M48.4,0.9C48.4,0.9,48.4,0.9,48.4,0.9c0.1,0,0.2,0,0.2,0.1
		c0.1,0.1,0.3,0.2,0.4,0.3c0,0,0,0,0.1,0.1c0.1,0.1,0.2,0.2,0.4,0.2c0,0.1,0.1,0.1,0.1,0.1C49.8,1.8,49.9,1.9,50,2c0,0,0,0.1,0,0.1
		c-0.5,0-1.1,0-1.6,0c0-0.1,0-0.1,0-0.2C48.4,1.5,48.4,1.2,48.4,0.9L48.4,0.9z"/>
	
		<radialGradient id="SVGID_2_" cx="43.2404" cy="68.8174" r="8.9265" gradientTransform="matrix(0.998 0 0 0.998 0.1914 -61.4106)" gradientUnits="userSpaceOnUse">
		<stop  offset="0.596" style="stop-color:#F29405"/>
		<stop  offset="0.736" style="stop-color:#F7D01E"/>
		<stop  offset="1" style="stop-color:#FDCB06"/>
	</radialGradient>
	<path class="st5" d="M50,2.1c-0.5,0-1.1,0-1.6,0c0-0.1,0-0.1,0-0.2c0-0.3,0-0.6,0-0.9c0,0,0,0,0-0.1c0-0.1,0.1-0.2,0.2-0.2
		c0.2-0.1,0.3-0.1,0.5-0.2c0,0,0-0.1,0-0.1c-0.2-0.1-0.4-0.2-0.7-0.2c-0.1,0-0.1-0.1-0.2-0.1h-9.5c0,0-0.1,0-0.1,0
		c-0.2,0.1-0.5,0.2-0.7,0.3c0,0,0,0-0.1,0.1c0,0,0,0,0,0.1c0.2,0.1,0.3,0.1,0.5,0.2c0.1,0,0.1,0.1,0.2,0.2l0,0c0,0.1,0,0.2,0,0.3
		c0,0.3,0,0.6,0,0.9c-0.5,0-1.1,0-1.6,0c0,0,0,0.1,0,0.1c0.6,0,1.2,0,1.8,0c0.9,0,1.7,0,2.6,0l0,0c0,0,0.1,0,0.1,0
		c1.6,0,3.2,0,4.7,0c0.5,0,1,0,1.5,0C48.4,2.1,49.2,2.1,50,2.1C50,2.1,50,2.1,50,2.1L50,2.1z M40.3,0.9c0-0.1,0.1-0.2,0.2-0.2
		c0.2,0,0.4,0.1,0.4,0.3c0,0.2-0.2,0.4-0.4,0.3c-0.1,0-0.2-0.1-0.2-0.1C40.3,1.2,40.3,1.1,40.3,0.9L40.3,0.9z M45.9,0.9
		c0.1-0.1,0.2-0.1,0.3-0.1c0.1,0,0.2,0.1,0.2,0.2c0.1,0.2,0,0.4-0.1,0.5c-0.1,0.1-0.3,0-0.4-0.1C45.8,1.2,45.8,1,45.9,0.9z"/>
	
		<linearGradient id="SVGID_3_" gradientUnits="userSpaceOnUse" x1="46.3108" y1="64.2159" x2="46.3139" y2="64.7345" gradientTransform="matrix(1 0 0 1 0.14 -61.546)">
		<stop  offset="0" style="stop-color:#FADA1C"/>
		<stop  offset="1" style="stop-color:#FDCB06"/>
	</linearGradient>
	<path class="st6" d="M46.4,2.9c0,0-0.1-0.2-0.1-0.2c0,0,0.1-0.1,0.3,0c0.1,0.1,0.1,0.2,0.1,0.3c0,0.1-0.1,0.1-0.1,0.2
		c0,0-0.1,0-0.1,0c0-0.1,0-0.1,0-0.2L46.4,2.9z"/>
	
		<linearGradient id="SVGID_4_" gradientUnits="userSpaceOnUse" x1="2390.9873" y1="64.191" x2="2390.9905" y2="64.7097" gradientTransform="matrix(-1 0 0 1 2431.3374 -61.546)">
		<stop  offset="0" style="stop-color:#FADA1C"/>
		<stop  offset="1" style="stop-color:#FDCB06"/>
	</linearGradient>
	<path class="st7" d="M40.4,3c0,0.1-0.1,0.1,0,0.2c0,0-0.1,0-0.1,0c0,0-0.1-0.1-0.1-0.2c0-0.1,0-0.2,0.1-0.3c0.1-0.1,0.2,0,0.3,0
		c0,0-0.1,0.2-0.1,0.2L40.4,3L40.4,3z"/>
	<path class="st3" d="M46.1,4.1C46.2,4,46.2,4,46.1,4.1C46,4.5,45.7,5,45.3,5.4c0,0-0.1,0.1-0.1,0.1c0,0-0.1,0.1-0.1,0.1
		c0,0-0.1,0.1-0.1,0.1c-0.1,0.1-0.2,0.1-0.3,0.2C44.4,6,44.2,6,43.9,6.1c-0.1,0-0.2,0-0.3,0c-0.1,0-0.2,0-0.4,0c-0.1,0-0.1,0-0.2,0
		c-0.1,0-0.1,0-0.2,0c-0.1,0-0.1,0-0.2,0c-0.9-0.3-1.7-0.9-1.9-1.8c0-0.1,0-0.1,0-0.2c0,0.1,0.1,0.1,0.1,0.2c0.3,0.8,1,1.4,1.9,1.5
		c0.1,0,0.1,0,0.2,0c0.1,0,0.1,0,0.2,0c0.2,0,0.4,0,0.6,0c0,0,0.1,0,0.1,0c0.3,0,0.6-0.1,0.9-0.2c0.1,0,0.1-0.1,0.2-0.1
		c0,0,0.1-0.1,0.1-0.1c0,0,0.1-0.1,0.1-0.1c0.3-0.3,0.6-0.6,0.8-1C46.1,4.2,46.1,4.1,46.1,4.1z"/>
	<path class="st8" d="M45.8,5.7c0.6-0.3,1.2-0.5,1.8-0.5c0.2,0,0.4,0,0.6,0c0.1,0,0.3,0.1,0.4,0.2c-0.1,0-0.1,0-0.2,0
		c-0.2,0-0.3,0-0.5,0c-0.4,0-0.9,0-1.3,0.2c-0.2,0.1-0.5,0.1-0.7,0.3c-0.4,0.2-0.7,0.5-0.9,0.8c-0.5,0.5-0.7,1.2-0.9,1.9
		c-0.1,0.4-0.1,0.7-0.2,1.1c-0.1,0-0.2,0-0.3,0c-0.4,0-0.8,0-1.2,0c-0.1,0-0.2,0-0.3,0c-0.7,0-1.5,0-2.2,0l0,0
		c0.6-0.1,1.1-0.1,1.7-0.2c0.7,0,1.4,0,2.1,0c0,0,0.1,0,0.1,0C43.9,9,44,8.7,44,8.4c0.1-0.4,0.2-0.8,0.4-1.2
		C44.7,6.6,45.2,6.1,45.8,5.7z"/>
	<path class="st9" d="M46.7,5.5c0.4-0.1,0.9-0.2,1.3-0.2c0.2,0,0.3,0,0.5,0c0.1,0,0.1,0,0.2,0c0.1,0.1,0.1,0.2,0.2,0.3
		C48.9,5.9,49,6.2,49,6.4c0,0.1,0,0.2,0,0.3c-0.1,0.1-0.2,0.1-0.3,0.2C48.4,7,48,6.9,47.6,7c-0.3,0.1-0.6,0.2-0.8,0.5
		c-0.2,0.3-0.3,0.6-0.4,1c-0.1,0.3-0.1,0.6-0.2,0.9c0,0.1,0,0.1,0,0.2c0.4,0,0.7,0,1.1,0c0.1,0,0.3,0,0.4,0c0.1,0.2,0.1,0.4,0,0.5
		c0,0.2-0.1,0.4-0.2,0.6c-0.1,0.2-0.2,0.3-0.4,0.4c-0.1,0-0.2,0-0.3,0c-0.3,0-0.6,0-0.9,0c-0.1,0.2-0.1,0.5-0.1,0.7
		c-0.1,0.5-0.2,0.9-0.2,1.4c0,0,0,0,0,0.1v0c-0.8,0-1.6,0-2.4,0c0,0,0,0,0,0c0,0,0,0,0,0c0,0,0,0,0,0.1c0.1,0,0.1,0,0.2,0
		c0.1-0.7,0.2-1.4,0.4-2.1c-0.1,0-0.1,0-0.2,0c0,0,0,0.1,0,0.1l0-0.1c-0.5,0-1,0-1.5,0c-0.1,0-0.2,0-0.4,0c-0.2,0-0.4,0-0.6,0
		c-0.3,0-0.5,0-0.8,0c-0.2,0-0.4,0-0.6,0c-0.1,0-0.3,0-0.4,0c-0.2,0-0.4,0-0.7,0c-0.2,0-0.5,0-0.7,0c0,0,0,0,0,0c0.1,0,0.2,0,0.2,0
		c0.2,0,0.3,0,0.5,0c0.2,0,0.4,0,0.5,0c0.2,0,0.3,0,0.5,0c0.2,0,0.4,0,0.6,0c0.2,0,0.3,0,0.5,0c0.2,0,0.4,0,0.5,0c0.2,0,0.4,0,0.5,0
		c0-0.1,0-0.1,0-0.2c0,0-0.1,0-0.1,0c-0.4-0.1-0.8-0.1-1.2-0.2c0,0,0.1,0,0.1,0c0.3,0,0.6-0.1,0.9-0.1c0.1,0,0.1,0,0.2,0
		c0-0.1-0.1-0.2-0.1-0.3c-0.7-0.1-1.3-0.2-2-0.3c0.2,0,0.3,0,0.5-0.1c0.7,0,1.5,0,2.2,0c0.1,0,0.2,0,0.3,0c0.4,0,0.8,0,1.2,0
		c0.1,0,0.2,0,0.3,0c0.1-0.4,0.1-0.7,0.2-1.1c0.1-0.7,0.4-1.4,0.9-1.9C45.3,6.2,45.7,6,46,5.8C46.2,5.6,46.5,5.6,46.7,5.5z"/>
	<path class="st8" d="M46.3,9.4c0.4,0,0.7,0,1.1,0c0.1,0,0.3,0.1,0.3,0.2c-0.1,0-0.3,0-0.4,0c-0.4,0-0.7,0-1.1,0
		C46.3,9.5,46.3,9.4,46.3,9.4L46.3,9.4z M43.5,11.1c0.1,0,0.1,0,0.2,0c-0.1,0.7-0.2,1.4-0.4,2.1c0,0.1-0.1,0-0.2,0c0,0,0,0,0-0.1
		C43.3,12.5,43.4,11.8,43.5,11.1C43.5,11.1,43.5,11.1,43.5,11.1L43.5,11.1z"/>
	<path class="st10" d="M46.5,2.9C46.4,2.9,46.4,2.9,46.5,2.9L46.5,2.9c-0.1-0.2-0.1-0.3-0.2-0.3c-0.1,0-0.2,0-0.2,0.1
		C46,2.8,46,3,46,3.1c0,0,0,0,0,0c0,0.1,0,0.2,0,0.2c0,0,0,0,0,0.1c0,0.2-0.1,0.3-0.2,0.5c0,0,0,0,0,0.1c-0.1,0.1-0.1,0.2-0.2,0.3
		c0,0,0,0,0,0c0,0.1-0.1,0.1-0.2,0.2c0,0,0,0,0,0c-0.1,0.1-0.1,0.1-0.2,0.2c0,0,0,0,0,0C44.6,5,44,5.1,43.5,5.1
		c-0.5,0-1-0.1-1.4-0.3c0,0,0,0,0,0c-0.1,0-0.1-0.1-0.2-0.1c0,0,0,0,0,0c-0.1,0-0.1-0.1-0.2-0.1c0,0,0,0-0.1-0.1
		c-0.1-0.1-0.1-0.1-0.2-0.2c0,0,0,0,0,0c-0.2-0.2-0.4-0.5-0.4-0.7c-0.1-0.2-0.1-0.5-0.1-0.7c-0.1-0.1-0.2-0.2-0.3-0.1
		c0,0-0.1,0.1-0.1,0.1c-0.1,0.6,0.2,1.2,0.6,1.7c0,0,0,0,0,0c0.1,0.1,0.1,0.1,0.2,0.2c0,0,0,0,0,0c0.1,0.1,0.2,0.1,0.2,0.2
		c0,0,0,0,0,0c0.1,0.1,0.2,0.1,0.3,0.2c0,0,0,0,0,0c0.4,0.2,0.7,0.3,1.1,0.3c0,0,0.1,0,0.1,0c0.2,0,0.4,0,0.6,0
		c0.6-0.1,1.2-0.2,1.7-0.5l0,0c0,0,0,0,0,0c0.1-0.1,0.2-0.1,0.2-0.2c0,0,0,0,0.1,0c0.1-0.1,0.2-0.2,0.2-0.3l0,0c0,0,0,0,0,0
		c0.1-0.1,0.1-0.2,0.2-0.3c0,0,0,0,0,0l0,0c0,0,0,0,0,0c0.1-0.2,0.2-0.4,0.2-0.7c0,0,0,0,0,0c0-0.1,0-0.1,0-0.2
		C46.5,3.1,46.5,3,46.5,2.9L46.5,2.9z"/>
	<g>
		<defs>
			<path id="SVGID_5_" d="M46.5,2.9C46.4,2.9,46.4,2.9,46.5,2.9L46.5,2.9c-0.1-0.2-0.1-0.3-0.2-0.3c-0.1,0-0.2,0-0.2,0.1
				C46,2.8,46,3,46,3.1c0,0,0,0,0,0c0,0.1,0,0.2,0,0.2c0,0,0,0,0,0.1c0,0.2-0.1,0.3-0.2,0.5c0,0,0,0,0,0.1c-0.1,0.1-0.1,0.2-0.2,0.3
				c0,0,0,0,0,0c0,0.1-0.1,0.1-0.2,0.2c0,0,0,0,0,0c-0.1,0.1-0.1,0.1-0.2,0.2c0,0,0,0,0,0C44.6,5,44,5.1,43.5,5.1
				c-0.5,0-1-0.1-1.4-0.3c0,0,0,0,0,0c-0.1,0-0.1-0.1-0.2-0.1c0,0,0,0,0,0c-0.1,0-0.1-0.1-0.2-0.1c0,0,0,0-0.1-0.1
				c-0.1-0.1-0.1-0.1-0.2-0.2c0,0,0,0,0,0c-0.2-0.2-0.4-0.5-0.4-0.7c-0.1-0.2-0.1-0.5-0.1-0.7c-0.1-0.1-0.2-0.2-0.3-0.1
				c0,0-0.1,0.1-0.1,0.1c-0.1,0.6,0.2,1.2,0.6,1.7c0,0,0,0,0,0c0.1,0.1,0.1,0.1,0.2,0.2c0,0,0,0,0,0c0.1,0.1,0.2,0.1,0.2,0.2
				c0,0,0,0,0,0c0.1,0.1,0.2,0.1,0.3,0.2c0,0,0,0,0,0c0.4,0.2,0.7,0.3,1.1,0.3c0,0,0.1,0,0.1,0c0.2,0,0.4,0,0.6,0
				c0.6-0.1,1.2-0.2,1.7-0.5l0,0c0,0,0,0,0,0c0.1-0.1,0.2-0.1,0.2-0.2c0,0,0,0,0.1,0c0.1-0.1,0.2-0.2,0.2-0.3l0,0c0,0,0,0,0,0
				c0.1-0.1,0.1-0.2,0.2-0.3c0,0,0,0,0,0l0,0c0,0,0,0,0,0c0.1-0.2,0.2-0.4,0.2-0.7c0,0,0,0,0,0c0-0.1,0-0.1,0-0.2
				C46.5,3.1,46.5,3,46.5,2.9L46.5,2.9z"/>
		</defs>
		<clipPath id="SVGID_6_">
			<use xlink:href="#SVGID_5_"  style="overflow:visible;"/>
		</clipPath>
		<g class="st11">
			<path class="st12" d="M40.2,2.9c0.2,0,0.5-0.1,0.6,0 M40.3,3.3c0.1-0.1,0.5-0.2,0.6-0.1 M40.5,3.8c0.1,0,0.2-0.1,0.3-0.1
				c0.1-0.1,0.2-0.1,0.3-0.1 M40.7,4.3c0.1-0.1,0.2-0.2,0.3-0.3c0.1-0.1,0.4-0.3,0.5-0.2 M40.9,4.6C41,4.5,41,4.4,41.1,4.4
				c0.1-0.1,0.3-0.1,0.4-0.1 M41.2,4.9c0-0.2,0.2-0.4,0.4-0.4 M41.5,5.1c0.1,0,0.2-0.2,0.2-0.3c0.1-0.1,0.2-0.1,0.3-0.2 M42,5.3
				c0-0.1,0.1-0.5,0.3-0.5 M42.4,5.5c0-0.2,0.1-0.6,0.3-0.6 M42.9,5.7c0-0.2,0-0.5,0.1-0.7 M43.4,5.8c0-0.2-0.2-0.5,0-0.7 M43.9,5.6
				c-0.1-0.1-0.1-0.5-0.1-0.6 M44.4,5.6c-0.1-0.1-0.1-0.2-0.2-0.4c0-0.1,0-0.2,0-0.3 M44.9,5.4c-0.1-0.1-0.2-0.4-0.1-0.6 M45.3,5.2
				c-0.1-0.2-0.2-0.4-0.2-0.6 M45.7,4.8c-0.2-0.1-0.4-0.3-0.3-0.5 M46.1,4.5c-0.2-0.1-0.5-0.3-0.7-0.5 M46.3,4
				c-0.2,0-0.7-0.3-0.7-0.5 M46.5,3.6c-0.2-0.1-0.6-0.2-0.8-0.3 M46.6,3.2c-0.2,0-0.4-0.1-0.5-0.1c-0.2,0-0.3-0.1-0.5-0.1 M46.5,2.8
				c-0.3,0-0.6-0.1-0.8-0.2"/>
		</g>
	</g>
	<g>
		<path class="st13" d="M9.1,3.7c0.3,0,0.6-0.1,0.8,0.1c0.1,0.1,0.2,0.3,0.2,0.5c0,0.3-0.1,0.6-0.4,0.7C9.5,5.2,9.2,5.2,9,5.1
			C8.8,5.1,8.6,5,8.5,4.9C8.3,4.4,8.6,3.8,9.1,3.7L9.1,3.7z M1,4c0-0.2,0.2-0.3,0.3-0.3c1.2,0,2.3,0,3.5,0c0.1,0,0.3,0,0.3,0.2
			c0.1,0.2,0,0.3,0,0.5c0,0.2,0,0.5-0.3,0.6C4,5,3.2,5,2.3,5C2.2,5.5,2.2,6.1,2.1,6.6c0,0,0,0.1,0,0.1c0.6,0,1.3,0,1.9,0
			c0.2,0,0.4,0.1,0.3,0.3c0,0.2-0.1,0.4-0.1,0.6c0,0.1-0.1,0.2-0.3,0.3c-0.7,0-1.4,0-2.1,0c-0.1,0.8-0.2,1.5-0.4,2.3
			c0,0.2-0.1,0.3-0.3,0.3c-0.3,0-0.6,0-0.9,0c-0.2,0-0.3-0.2-0.3-0.4C0.4,8.1,0.7,6,1,4L1,4z M6.2,3.8c0.3,0,0.5,0,0.8,0
			c0.2,0,0.3,0.1,0.3,0.3c0,0.1,0,0.3-0.1,0.4C7.1,5.8,6.8,7.2,6.6,8.5c0,0.2-0.1,0.5,0,0.7C6.7,9.4,7,9.3,7.1,9.6
			c0.1,0.2,0,0.4,0,0.6c0,0.3-0.3,0.3-0.5,0.4c-0.4,0.1-1,0-1.3-0.3c-0.2-0.3-0.2-0.6-0.2-1C5.4,7.5,5.7,5.8,5.9,4
			C6,3.9,6.1,3.8,6.2,3.8L6.2,3.8z M16.3,4c0-0.2,0.2-0.3,0.3-0.3h0.8c0.2,0,0.4,0.2,0.3,0.4c-0.2,1.1-0.4,2.3-0.5,3.4
			c0.3,0,0.6-0.1,0.8-0.3c0.3-0.4,0.6-0.8,0.8-1.2c0.1-0.2,0.1-0.4,0.3-0.4c0.3,0,0.6,0,0.9,0c0.2,0,0.3,0.2,0.3,0.4
			c-0.1,0.3-0.2,0.5-0.3,0.8c-0.3,0.5-0.6,1-1,1.3c0.2,0.6,0.4,1.1,0.6,1.7c0.1,0.2,0.2,0.4,0.1,0.6c-0.2,0.2-0.5,0.1-0.7,0.1
			c-0.2,0-0.6,0.1-0.7-0.2c-0.2-0.6-0.4-1.1-0.7-1.7c-0.1,0-0.3,0-0.4,0c0,0,0,0.1,0,0.1c-0.1,0.5-0.2,1-0.2,1.5
			c0,0.1-0.1,0.2-0.3,0.2c-0.3,0-0.5,0-0.8,0c-0.1,0-0.2-0.1-0.3-0.2c-0.1-0.1,0-0.2,0-0.3C15.7,8,16,6,16.3,4L16.3,4z M30.5,4.6
			c0-0.1,0.2-0.2,0.3-0.2c0.2,0,0.4,0,0.6,0c0.2,0,0.3,0.2,0.3,0.3c0,0.3-0.1,0.6-0.1,0.9c0.2,0,0.4,0,0.6,0c0.2,0,0.3,0.2,0.3,0.4
			c0,0.2-0.1,0.3-0.1,0.5c0,0.1-0.1,0.2-0.3,0.3c-0.2,0-0.5,0-0.7,0c-0.1,0.7-0.2,1.4-0.3,2c0,0.2,0,0.3,0.1,0.5
			c0.1,0.2,0.4,0.1,0.6,0.1c0.2,0,0.2,0.2,0.2,0.4c0,0.2,0,0.3-0.1,0.5c-0.1,0.2-0.3,0.2-0.4,0.3c-0.5,0.1-1,0.1-1.4-0.1
			c-0.4-0.3-0.4-0.8-0.4-1.2c0.1-0.8,0.3-1.6,0.4-2.5c-0.1,0-0.3,0-0.4-0.1c-0.1-0.1-0.1-0.3,0-0.5c0-0.2,0-0.4,0.2-0.5
			c0.1-0.1,0.3,0,0.5,0C30.3,5.2,30.4,4.9,30.5,4.6L30.5,4.6z M27.6,6.2c0.3-0.3,0.7-0.6,1.2-0.7c0.2-0.1,0.4,0.1,0.4,0.3
			c0,0.3-0.1,0.6-0.1,0.8c0,0.1-0.1,0.3-0.3,0.3c-0.5,0.1-0.9,0.4-1.3,0.7c-0.1,0.1-0.2,0.2-0.2,0.4c-0.1,0.7-0.2,1.4-0.3,2.1
			c0,0.2-0.1,0.3-0.3,0.3h-0.8c-0.2,0-0.3-0.2-0.3-0.3c0.2-1.4,0.4-2.8,0.7-4.2c0-0.1,0.1-0.3,0.3-0.3c0.2,0,0.4,0,0.6,0
			c0.2,0,0.3,0.1,0.3,0.3c0,0.2,0,0.4,0,0.7C27.4,6.5,27.5,6.3,27.6,6.2L27.6,6.2z M8.5,5.6c0.3-0.1,0.6,0,0.8,0
			c0.2,0,0.3,0.1,0.4,0.2c0,0.1,0,0.3,0,0.4c-0.2,1.3-0.4,2.6-0.6,3.9c0,0.1-0.1,0.3-0.3,0.3c-0.3,0-0.6,0-0.8,0
			c-0.2,0-0.3-0.2-0.3-0.4C7.9,8.7,8.1,7.3,8.3,6C8.3,5.8,8.4,5.7,8.5,5.6z M25,5.7c-0.8-0.1-1.5-0.2-2.3-0.2
			c-0.7,0.1-1.4,0.4-1.8,1c-0.6,0.7-0.8,1.7-0.7,2.7c0.1,0.4,0.3,0.9,0.6,1.2c0.3,0.3,0.8,0.3,1.2,0.2c0.6-0.1,1.1-0.5,1.5-0.9
			c0,0.2,0,0.3,0,0.5c0,0.2,0.2,0.3,0.3,0.3h0.5c0.2,0,0.3-0.1,0.3-0.3c0.2-1.4,0.4-2.8,0.7-4.1C25.3,5.9,25.2,5.7,25,5.7L25,5.7z
			 M23.6,8.1c-0.2,0.4-0.5,0.7-0.8,1c-0.2,0.2-0.4,0.3-0.7,0.3c-0.2-0.1-0.4-0.3-0.4-0.5c-0.1-0.6,0-1.2,0.3-1.7
			c0.1-0.2,0.4-0.4,0.6-0.5c0.4-0.1,0.8,0,1.1,0.1l0,0C23.7,7.2,23.7,7.6,23.6,8.1L23.6,8.1z M15,7.3c0-0.5-0.1-1-0.5-1.4
			c-0.2-0.3-0.6-0.4-1-0.4c-0.6,0-1.1,0.3-1.6,0.7c-0.1,0.1-0.2,0.2-0.3,0.2c0-0.2,0-0.3,0-0.5c0-0.2-0.1-0.3-0.3-0.3h-0.5
			c-0.2,0-0.3,0.1-0.3,0.3c-0.3,2-0.6,4.1-1,6.1c0,0.2,0.1,0.4,0.3,0.4c0.3,0,0.6,0,0.9,0c0.2-0.1,0.2-0.3,0.3-0.5
			c0.1-0.4,0.1-0.9,0.2-1.4c1,0.2,2.2,0.1,2.9-0.7C14.8,9.1,15.1,8.2,15,7.3L15,7.3z M13.6,7.8c0,0.5-0.2,0.9-0.5,1.3
			c-0.4,0.4-1.1,0.3-1.6,0.2c0,0,0,0,0-0.1c0.1-0.4,0.1-0.9,0.2-1.3C12,7.5,12.3,7,12.8,6.7c0.2-0.1,0.4-0.1,0.6,0.1
			C13.6,7.1,13.6,7.5,13.6,7.8L13.6,7.8z"/>
	</g>
</g>
</svg>
