<?xml version="1.0" encoding="utf-8"?>
<!-- Generator: Adobe Illustrator 21.0.0, SVG Export Plug-In . SVG Version: 6.00 Build 0)  -->
<svg version="1.1" id="Layer_1" xmlns="http://www.w3.org/2000/svg" xmlns:xlink="http://www.w3.org/1999/xlink" x="0px" y="0px"
	 viewBox="0 0 25 18.4" style="enable-background:new 0 0 25 18.4;" xml:space="preserve">
<g>
	<path d="M14.9,12.9c-0.1,0.1-0.2,0.2-0.2,0.3c0,0.1,0,0.2,0.1,0.3s0.2,0.1,0.3,0.1c0.2,0,0.3,0,0.4-0.1c0.1-0.1,0.2-0.2,0.3-0.3
		v-0.5h-0.4C15.2,12.8,15,12.8,14.9,12.9z"/>
	<path d="M23.2,0H1.8C0.8,0,0,0.8,0,1.8v14.8c0,1,0.8,1.8,1.8,1.8h21.4c1,0,1.8-0.8,1.8-1.8V1.8C25,0.8,24.2,0,23.2,0z M3.8,13.8
		H3.5v-2.9h0.2V13.8z M4.6,13.8H4.4v-2.1h0.2V13.8z M4.6,11.2c0,0-0.1,0-0.1,0c0,0-0.1,0-0.1,0c0,0,0-0.1,0-0.1s0-0.1,0-0.1
		c0,0,0.1,0,0.1,0c0,0,0.1,0,0.1,0c0,0,0,0.1,0,0.1S4.7,11.2,4.6,11.2z M6.8,13.8H6.6v-1.4c0-0.2,0-0.3-0.1-0.4
		c-0.1-0.1-0.2-0.1-0.4-0.1c-0.1,0-0.3,0-0.4,0.1c-0.1,0.1-0.2,0.2-0.2,0.4v1.4H5.2v-2.1h0.2l0,0.4c0.1-0.1,0.2-0.2,0.3-0.3
		c0.1-0.1,0.2-0.1,0.4-0.1c0.2,0,0.4,0.1,0.5,0.2c0.1,0.1,0.2,0.3,0.2,0.6V13.8z M8.7,13.8l-0.8-1L7.6,13v0.8H7.4v-2.9h0.2v1.9
		l0.2-0.2l0.8-0.8h0.3L8,12.6l1,1.2H8.7z M11.8,13.6c-0.2,0.1-0.4,0.2-0.7,0.2c-0.2,0-0.4,0-0.5-0.1c-0.2-0.1-0.3-0.2-0.4-0.3
		c-0.1-0.1-0.1-0.3-0.1-0.4h0.2c0,0.2,0.1,0.4,0.2,0.5c0.1,0.1,0.3,0.2,0.6,0.2c0.2,0,0.4,0,0.5-0.1c0.1-0.1,0.2-0.2,0.2-0.4
		c0-0.2-0.1-0.3-0.2-0.4c-0.1-0.1-0.3-0.2-0.6-0.3c-0.3-0.1-0.5-0.2-0.6-0.3c-0.2-0.1-0.3-0.3-0.3-0.5c0-0.2,0.1-0.4,0.3-0.5
		c0.2-0.1,0.4-0.2,0.7-0.2c0.2,0,0.3,0,0.5,0.1c0.1,0.1,0.3,0.2,0.3,0.3s0.1,0.3,0.1,0.4h-0.2c0-0.2-0.1-0.3-0.2-0.5
		c-0.1-0.1-0.3-0.2-0.5-0.2c-0.2,0-0.4,0-0.5,0.1c-0.1,0.1-0.2,0.2-0.2,0.4c0,0.1,0.1,0.3,0.2,0.3s0.3,0.2,0.5,0.2s0.4,0.1,0.6,0.2
		c0.1,0.1,0.2,0.2,0.3,0.3c0.1,0.1,0.1,0.2,0.1,0.4C12.1,13.3,12,13.5,11.8,13.6z M12.1,8c-0.3,0.4-0.8,0.6-1.3,0.6
		c-0.3,0-0.6,0-0.9,0c-1,0-1.7-0.8-1.7-1.7c0-0.9,0.8-1.7,1.7-1.7c0.3,0,0.6,0,0.9,0c0.5,0,0.9,0.2,1.3,0.6c0.1,0.1,0.1,0.1,0.1,0.2
		C12.2,6,12.1,6,12,6c-0.3,0-0.7,0-1,0c-0.3,0-0.7,0-1,0C9.5,6,9.1,6.4,9.1,6.9c0,0.5,0.4,0.8,0.9,0.8c0.7,0,1.3,0,2,0
		c0.1,0,0.2,0,0.2,0C12.3,7.8,12.2,7.9,12.1,8z M14.1,6.4c0.4,0,0.6,0.2,0.5,0.4c0,0.3-0.2,0.4-0.5,0.4c-0.5,0-1.1,0-1.6,0
		c-0.5,0-1.1,0-1.6,0c-0.4,0-0.6-0.2-0.5-0.4c0-0.3,0.2-0.4,0.5-0.4C12,6.4,13,6.4,14.1,6.4z M14.1,12.8h-1.5v0
		c0,0.2,0.1,0.4,0.2,0.6c0.1,0.2,0.3,0.2,0.5,0.2c0.1,0,0.2,0,0.3-0.1c0.1,0,0.2-0.1,0.3-0.2l0.1,0.1c-0.2,0.2-0.4,0.4-0.7,0.4
		c-0.2,0-0.3,0-0.5-0.1c-0.1-0.1-0.3-0.2-0.3-0.4c-0.1-0.2-0.1-0.3-0.1-0.5v-0.1c0-0.2,0-0.4,0.1-0.5c0.1-0.2,0.2-0.3,0.3-0.4
		c0.1-0.1,0.3-0.1,0.4-0.1c0.2,0,0.4,0.1,0.6,0.3c0.1,0.2,0.2,0.4,0.2,0.7V12.8z M16.1,13.8h-0.2c0-0.1,0-0.2,0-0.3
		c-0.1,0.1-0.2,0.2-0.3,0.2s-0.3,0.1-0.4,0.1c-0.2,0-0.4-0.1-0.5-0.2c-0.1-0.1-0.2-0.2-0.2-0.4c0-0.2,0.1-0.4,0.3-0.5
		c0.2-0.1,0.4-0.2,0.7-0.2h0.4v-0.2c0-0.1,0-0.3-0.1-0.3c-0.1-0.1-0.2-0.1-0.4-0.1c-0.2,0-0.3,0-0.4,0.1c-0.1,0.1-0.2,0.2-0.2,0.3
		l-0.2,0c0-0.2,0.1-0.3,0.2-0.4s0.3-0.2,0.6-0.2c0.2,0,0.4,0.1,0.5,0.2s0.2,0.3,0.2,0.5v1C16.1,13.5,16.1,13.7,16.1,13.8L16.1,13.8z
		 M15.1,8.6c-0.3,0-0.6,0-0.9,0c-0.5,0-0.9-0.2-1.3-0.6c-0.1-0.1-0.1-0.1-0.1-0.2c0-0.1,0.1-0.1,0.2-0.1c0.7,0,1.3,0,2,0
		c0.3,0,0.6-0.1,0.8-0.4C16.2,6.7,15.8,6,15,6c-0.7,0-1.3,0-2,0c-0.1,0-0.2,0-0.2-0.1c0-0.1,0.1-0.2,0.1-0.2
		c0.3-0.4,0.8-0.6,1.3-0.6c0.3,0,0.5,0,0.8,0c0.9,0,1.4,0.4,1.7,1.2c0,0,0,0.1,0.1,0.1c0,0.3,0,0.5,0,0.8c-0.1,0.3-0.3,0.6-0.5,0.9
		C15.9,8.4,15.6,8.6,15.1,8.6z M17.6,11.9c0,0-0.1,0-0.2,0c-0.1,0-0.3,0-0.4,0.1c-0.1,0.1-0.2,0.2-0.2,0.3v1.4h-0.2v-2.1h0.2l0,0.3
		c0.1-0.2,0.3-0.4,0.6-0.4c0.1,0,0.1,0,0.2,0L17.6,11.9z M18.2,13.4c0.1,0.1,0.3,0.2,0.5,0.2c0.2,0,0.3,0,0.4-0.1
		c0.1-0.1,0.2-0.2,0.2-0.3h0.2c0,0.1,0,0.2-0.1,0.3s-0.2,0.2-0.3,0.2s-0.2,0.1-0.4,0.1c-0.3,0-0.5-0.1-0.6-0.3
		c-0.2-0.2-0.2-0.4-0.2-0.8v-0.1c0-0.2,0-0.4,0.1-0.5c0.1-0.2,0.2-0.3,0.3-0.4s0.3-0.1,0.5-0.1c0.2,0,0.4,0.1,0.6,0.2
		s0.2,0.3,0.2,0.5h-0.2c0-0.2-0.1-0.3-0.2-0.4c-0.1-0.1-0.2-0.1-0.4-0.1c-0.2,0-0.4,0.1-0.5,0.2c-0.1,0.1-0.2,0.4-0.2,0.6v0.1
		C18.1,13.1,18.1,13.3,18.2,13.4z M21.5,13.8h-0.2v-1.4c0-0.2,0-0.3-0.1-0.4c-0.1-0.1-0.2-0.1-0.4-0.1c-0.1,0-0.3,0-0.4,0.1
		c-0.1,0.1-0.2,0.2-0.2,0.4v1.4h-0.2v-2.9h0.2v1.2c0.1-0.1,0.2-0.2,0.3-0.3s0.2-0.1,0.4-0.1c0.2,0,0.4,0.1,0.5,0.2
		c0.1,0.1,0.2,0.3,0.2,0.6V13.8z"/>
	<path d="M13.3,11.9c-0.2,0-0.3,0.1-0.4,0.2c-0.1,0.1-0.2,0.3-0.2,0.5h1.2v0c0-0.2-0.1-0.4-0.2-0.5C13.6,11.9,13.5,11.9,13.3,11.9z"
		/>
</g>
</svg>
