<?xml version="1.0" encoding="utf-8"?>
<!-- Generator: Adobe Illustrator 21.0.0, SVG Export Plug-In . SVG Version: 6.00 Build 0)  -->
<svg version="1.1" id="Layer_1" xmlns="http://www.w3.org/2000/svg" xmlns:xlink="http://www.w3.org/1999/xlink" x="0px" y="0px"
	 viewBox="0 0 8.6 3.4" style="enable-background:new 0 0 8.6 3.4;" xml:space="preserve">
<path d="M8.6,1.3c0,0,0-0.1-0.1-0.1C8.2,0.4,7.6,0,6.8,0C6.5,0,6.2,0,6,0C5.5,0,5,0.2,4.7,0.6C4.6,0.7,4.5,0.7,4.6,0.8
	c0,0.1,0.2,0.1,0.2,0.1c0.7,0,1.3,0,2,0c0.7,0,1.1,0.7,0.7,1.3C7.4,2.5,7.1,2.6,6.8,2.6c-0.7,0-1.3,0-2,0c-0.1,0-0.2,0-0.2,0.1
	c0,0.1,0.1,0.1,0.1,0.2C5,3.2,5.4,3.4,6,3.4c0.3,0,0.6,0,0.9,0c0.5,0,0.8-0.2,1.2-0.5c0.3-0.2,0.4-0.6,0.5-0.9
	C8.6,1.8,8.6,1.6,8.6,1.3z"/>
<path d="M3.8,2.6c-0.7,0-1.3,0-2,0c-0.5,0-0.9-0.4-0.9-0.8c0-0.5,0.4-0.8,0.9-0.9c0.3,0,0.7,0,1,0c0.3,0,0.7,0,1,0
	c0.1,0,0.2,0,0.2-0.1C4,0.7,4,0.7,3.9,0.6C3.6,0.2,3.1,0,2.6,0C2.3,0,2,0,1.7,0C0.8,0,0,0.8,0,1.7c0,1,0.7,1.7,1.7,1.7
	c0.3,0,0.6,0,0.9,0c0.5,0,0.9-0.2,1.3-0.6C4,2.8,4,2.7,4,2.6C4,2.5,3.9,2.6,3.8,2.6z"/>
<path d="M2.1,1.7c0,0.3,0.2,0.4,0.5,0.4c0.5,0,1.1,0,1.6,0c0.5,0,1.1,0,1.6,0c0.3,0,0.5-0.2,0.5-0.4c0-0.3-0.2-0.4-0.5-0.4
	c-1.1,0-2.1,0-3.2,0C2.3,1.3,2.2,1.4,2.1,1.7z"/>
</svg>
