<?xml version="1.0" encoding="utf-8"?>
<!-- Generator: Adobe Illustrator 21.0.0, SVG Export Plug-In . SVG Version: 6.00 Build 0)  -->
<svg version="1.1" id="Layer_1" xmlns="http://www.w3.org/2000/svg" xmlns:xlink="http://www.w3.org/1999/xlink" x="0px" y="0px"
	 viewBox="0 0 21 24.3" style="enable-background:new 0 0 21 24.3;" xml:space="preserve">
<g id="FyxID4.tif_2_">
	<g>
		<path d="M10.3,12.5c2.3,0,4.3,0.3,6.2,1.1c1.4,0.5,2.6,1.2,3.5,2.4c1.3,1.6,1.2,3.6-0.2,5.1c-0.9,1-2.1,1.7-3.3,2.2
			c-1.4,0.6-3,0.9-4.5,1c-1.9,0.2-3.7,0-5.6-0.4c-1.7-0.4-3.3-1-4.7-2.1C0.9,21,0.2,20.1,0,18.9c-0.1-0.8,0.1-1.5,0.4-2.2
			c0.6-1.1,1.6-1.9,2.7-2.5c1.5-0.8,3.2-1.3,4.9-1.5C8.9,12.5,9.7,12.5,10.3,12.5z"/>
		<path d="M4.7,5.7c0-3.2,2.6-5.8,5.9-5.7c3.2,0.1,5.7,2.7,5.7,5.8c0,3.1-2.5,5.8-5.8,5.7C7,11.5,4.7,8.7,4.7,5.7z"/>
	</g>
</g>
</svg>
