<?xml version="1.0" encoding="utf-8"?>
<!-- Generator: Adobe Illustrator 21.0.0, SVG Export Plug-In . SVG Version: 6.00 Build 0)  -->
<svg version="1.1" id="Layer_1" xmlns="http://www.w3.org/2000/svg" xmlns:xlink="http://www.w3.org/1999/xlink" x="0px" y="0px"
	 viewBox="0 0 10 21.6" style="enable-background:new 0 0 10 21.6;" xml:space="preserve">
<g>
	<path d="M8.6,5C7,5,5.5,5,4,5c-0.9,0-1.8,0-2.7,0C0.4,5,0,5.4,0,6.3C0,8,0,9.7,0,11.4C0,11.8,0.2,12,0.6,12c1,0,2.1,0,3.1,0
		c2.1,0,4.2,0,6.4,0c0-2.1,0-4.2,0-6.3C9.7,5.1,9.2,5,8.6,5z"/>
	<path d="M8.5,13.9c-0.8,1.8-2.7,2.8-4.6,2.2c-1.3-0.4-2.2-1.3-2.6-2.6c-0.2-0.6-0.5-0.6-1-0.5C-0.1,13,0,13.4,0,13.7
		c0,1.3,0,2.6,0,3.9c0,1,0.4,1.4,1.3,1.4c2.5,0,4.9,0,7.4,0c0.6,0,1-0.2,1.3-0.7c0-1.8,0-3.5,0-5.3C8.9,12.9,8.9,12.9,8.5,13.9z"/>
	<path d="M2.8,4.1c0.4,0,0.6-0.1,0.6-0.5c0-0.6,0-1.3,0-1.9c0-0.4,0.1-0.5,0.5-0.5c0.8,0,1.5,0,2.3,0c0.4,0,0.5,0.1,0.5,0.5
		c0,0.7,0,1.3,0,2c0,0.4,0.2,0.5,0.6,0.5c0.4,0,0.6-0.1,0.6-0.5c0-0.7,0-1.4,0-2C7.9,0.8,7.6,0.3,7,0C5.7,0,4.4,0,3.1,0
		C2.5,0.3,2.3,0.7,2.2,1.4c0,0.7,0,1.5,0,2.2C2.2,4,2.5,4.1,2.8,4.1z"/>
	<path d="M5,15.3c1.2,0,2.3-0.7,2.7-1.8c0.2-0.4,0.1-0.6-0.4-0.6c-0.8,0-1.5,0-2.3,0c-0.8,0-1.5,0-2.3,0c-0.5,0-0.5,0.2-0.4,0.6
		C2.7,14.5,3.8,15.3,5,15.3z"/>
	<path d="M1.7,19.8c-0.3,0-0.6,0.3-0.6,0.6V21c0,0.3,0.3,0.6,0.6,0.6s0.6-0.3,0.6-0.6v-0.6C2.3,20.1,2,19.8,1.7,19.8z"/>
	<path d="M8.5,19.8c-0.3,0-0.6,0.3-0.6,0.6V21c0,0.3,0.3,0.6,0.6,0.6c0.3,0,0.6-0.3,0.6-0.6v-0.6C9.1,20.1,8.8,19.8,8.5,19.8z"/>
</g>
</svg>
