<?xml version="1.0" encoding="utf-8"?>
<!-- Generator: Adobe Illustrator 21.0.0, SVG Export Plug-In . SVG Version: 6.00 Build 0)  -->
<svg version="1.1" id="Layer_1" xmlns="http://www.w3.org/2000/svg" xmlns:xlink="http://www.w3.org/1999/xlink" x="0px" y="0px"
	 viewBox="0 0 18.6 18.6" style="enable-background:new 0 0 18.6 18.6;" xml:space="preserve">
<path d="M10.8,7.2v0.6c0,0.1-0.1,0.2-0.2,0.2s-0.2-0.1-0.2-0.2V7.2H8.2v0.6C8.2,7.9,8.1,8,8,8S7.8,7.9,7.8,7.8V7.2H7.1l-0.4,4.6
	c0,0.3,0.3,0.6,0.7,0.6h3.7c0.4,0,0.7-0.3,0.7-0.6l-0.4-4.6H10.8z"/>
<path d="M9.3,5.7c-0.6,0-1.1,0.5-1.1,1h2.1C10.4,6.2,9.9,5.7,9.3,5.7z"/>
<path d="M9.3,0C4.2,0,0,4.2,0,9.3s4.2,9.3,9.3,9.3s9.3-4.2,9.3-9.3S14.4,0,9.3,0z M11.2,12.8H7.4c-0.6,0-1.1-0.4-1.1-1c0,0,0,0,0,0
	L6.7,7c0-0.1,0.1-0.2,0.2-0.2h0.9c0-0.8,0.7-1.5,1.5-1.5s1.5,0.7,1.5,1.5h0.9c0.1,0,0.2,0.1,0.2,0.2l0.4,4.8c0,0,0,0,0,0
	C12.3,12.4,11.8,12.8,11.2,12.8z"/>
</svg>
