<?xml version="1.0" encoding="utf-8"?>
<!-- Generator: Adobe Illustrator 21.0.0, SVG Export Plug-In . SVG Version: 6.00 Build 0)  -->
<svg version="1.1" id="Layer_1" xmlns="http://www.w3.org/2000/svg" xmlns:xlink="http://www.w3.org/1999/xlink" x="0px" y="0px"
	 viewBox="0 0 21 18.7" style="enable-background:new 0 0 21 18.7;" xml:space="preserve">
<g id="Zf1Ho8.tif_1_">
	<g>
		<path d="M21,7c0,3.6,0,7.2,0,10.8c-0.4,0.6-0.9,0.8-1.7,0.8c-5.1,0-10.2,0-15.3,0c-1.3,0-1.7-0.5-1.8-1.8c0-3,0-6,0-9
			c0-1.2,0.5-1.7,1.7-1.7c5.2,0,10.3,0,15.5,0C20.1,6.2,20.7,6.4,21,7z M5.7,8.6c-0.4,0-0.8,0-1.2,0C4,8.6,3.8,8.8,3.8,9.2
			c0,0.5,0,1.1,0,1.6c0,0.4,0.2,0.6,0.6,0.6c0.8,0,1.7,0,2.5,0c0.4,0,0.6-0.2,0.6-0.6c0-0.5,0-1.1,0-1.6c0-0.4-0.2-0.6-0.6-0.6
			C6.5,8.6,6.1,8.6,5.7,8.6z"/>
		<path d="M0,6.9c0.2-0.4,0.6-0.7,1-0.8c4.7-1.9,9.5-3.9,14.2-5.8c0.2-0.1,0.4-0.2,0.5-0.3c0.3,0,0.6,0,0.9,0
			c0.8,0.3,0.9,1.1,1.2,1.8c0.1,0.3-0.2,0.4-0.4,0.4c-1.5,0.6-3,1.2-4.5,1.9c-1.5,0.6-3,1.2-4.4,1.8C8.1,6,7.8,6.1,7.5,6.1
			C6.2,6,5,6,3.8,6.1c-1.1,0-1.7,0.5-1.7,1.7C2,8.4,1.4,9,0.7,9C0.5,9,0.5,8.9,0.4,8.7C0.3,8.4,0.1,8.1,0,7.8C0,7.5,0,7.2,0,6.9z"/>
		<path d="M12.9,5.9c0.7-0.3,1.2-0.5,1.7-0.7c1.1-0.5,2.3-0.9,3.4-1.4c0.4-0.2,0.6-0.1,0.7,0.3c0.2,0.5,0.4,1,0.6,1.5
			C19.5,5.9,19.5,6,19.1,6c-2,0-3.9,0-5.9,0C13.2,6,13.1,6,12.9,5.9z"/>
	</g>
</g>
</svg>
