<?xml version="1.0" encoding="utf-8"?>
<!-- Generator: Adobe Illustrator 21.0.0, SVG Export Plug-In . SVG Version: 6.00 Build 0)  -->
<svg version="1.1" id="Layer_1" xmlns="http://www.w3.org/2000/svg" xmlns:xlink="http://www.w3.org/1999/xlink" x="0px" y="0px"
	 viewBox="0 0 18.6 18.6" style="enable-background:new 0 0 18.6 18.6;" xml:space="preserve">
<g>
	<path d="M10.6,7.9c0.4,0.3,0.6,0.8,0.6,1.4c0,0.5-0.2,1-0.6,1.4c0.5-0.2,0.9-0.4,1.2-0.6c0.4-0.3,0.7-0.5,0.8-0.7
		c-0.2-0.2-0.4-0.4-0.8-0.7C11.4,8.4,11,8.1,10.6,7.9z"/>
	<path d="M9.3,0C4.2,0,0,4.2,0,9.3s4.2,9.3,9.3,9.3s9.3-4.2,9.3-9.3S14.4,0,9.3,0z M13.1,9.5c0,0-0.4,0.5-1.1,1
		c-0.9,0.6-1.8,1-2.8,1s-1.9-0.3-2.8-1c-0.7-0.5-1-1-1.1-1L5.3,9.3l0.1-0.2c0,0,0.4-0.5,1.1-1c0.9-0.6,1.8-1,2.8-1s1.9,0.3,2.8,1
		c0.7,0.5,1,1,1.1,1l0.1,0.2L13.1,9.5z"/>
	<path d="M9.3,7.8c-0.4,0-0.8,0.2-1,0.4L8,7.9C7.6,8.1,7.2,8.4,6.9,8.6C6.5,8.9,6.2,9.1,6.1,9.3C6.2,9.5,6.5,9.8,6.9,10
		c0.3,0.2,0.7,0.5,1.2,0.6c-0.4-0.3-0.6-0.8-0.6-1.4c0-0.1,0-0.3,0.1-0.4l0.3,0.1c0,0.1,0,0.2,0,0.4c0,0.8,0.7,1.5,1.5,1.5
		s1.5-0.7,1.5-1.5C10.8,8.5,10.1,7.8,9.3,7.8z M9.3,10.3c-0.6,0-1-0.4-1-1c0-0.1,0-0.2,0-0.3l0.8,0.1L8.6,8.6C8.8,8.4,9,8.3,9.3,8.3
		c0.6,0,1,0.4,1,1S9.9,10.3,9.3,10.3z"/>
</g>
</svg>
