<?xml version="1.0" encoding="utf-8"?>
<!-- Generator: Adobe Illustrator 21.0.0, SVG Export Plug-In . SVG Version: 6.00 Build 0)  -->
<svg version="1.1" id="Layer_1" xmlns="http://www.w3.org/2000/svg" xmlns:xlink="http://www.w3.org/1999/xlink" x="0px" y="0px"
	 viewBox="0 0 22 28" style="enable-background:new 0 0 22 28;" xml:space="preserve">
<g id="HjvAP2.tif">
	<g>
		<path d="M22,10.9c0,1.6-0.4,2.9-1,4.3c-0.8,1.8-2,3.4-3.3,4.9c-2,2.4-4,4.8-6.1,7.2c-0.2,0.2-0.3,0.4-0.5,0.5
			C11,28,11,28,10.8,27.9c-1-1.1-2-2.2-3-3.2c-1.3-1.4-2.5-2.8-3.7-4.2c-1.4-1.6-2.6-3.3-3.4-5.3C0.3,14,0.1,12.7,0,11.5
			C-0.1,9,0.6,6.7,2,4.7c1.8-2.5,4.1-4,7.1-4.5c5.3-0.9,10.5,2.1,12.3,7.2C21.8,8.5,22,9.7,22,10.9z M4.2,11.6
			c-0.2,0.1-0.4,0.2-0.6,0.3c-0.3,0.2-0.3,0.2,0,0.3c1,0.6,1.9,1.2,2.9,1.8c0.2,0.1,0.4,0.1,0.6,0c2.2-1.1,4.3-2.2,6.5-3.3
			c1.5-0.8,2.9-1.5,4.4-2.3c0.3-0.2,0.5-0.3,0.8-0.6c0.2-0.2,0.2-0.5,0-0.7c-0.3-0.3-0.6-0.3-1-0.3c-0.5,0.1-0.9,0.2-1.3,0.4
			c-1.1,0.6-2.2,1.1-3.4,1.7C12.8,9,12.7,9,12.5,9c-1.3-0.4-2.7-0.7-4-1.1c-1-0.3-1-0.3-1.9,0.2c-0.3,0.2-0.3,0.2,0,0.4
			c1,0.7,2,1.4,3,2.1c0.1,0.1,0.3,0.2,0,0.3c-0.9,0.5-1.9,1-2.8,1.4c-0.1,0.1-0.3,0.1-0.4,0C6,12.2,5.6,12,5.1,11.9
			C4.8,11.8,4.5,11.7,4.2,11.6z M11.9,12.3c1.1,0.5,2.2,1,3.2,1.5c0,0,0.1,0.1,0.2,0c0.1-0.1,0.2-0.8,0.2-0.8
			c-0.3-0.6-0.7-1.2-1-1.7c-0.1-0.1-0.1-0.1-0.2-0.1C13.5,11.5,12.8,11.9,11.9,12.3z"/>
	</g>
</g>
</svg>
