<?xml version="1.0" encoding="utf-8"?>
<!-- Generator: Adobe Illustrator 21.0.0, SVG Export Plug-In . SVG Version: 6.00 Build 0)  -->
<svg version="1.1" id="Layer_1" xmlns="http://www.w3.org/2000/svg" xmlns:xlink="http://www.w3.org/1999/xlink" x="0px" y="0px"
	 viewBox="0 0 23.4 22.1" style="enable-background:new 0 0 23.4 22.1;" xml:space="preserve">
<g>
	<path d="M23.4,21c-0.1-0.2-0.2-0.4-0.4-0.6c-0.2-0.1-0.3-0.2-0.5-0.2c-7.2,0-14.4,0-21.6,0c-0.4,0-0.8,0.2-0.9,0.6
		c-0.2,0.6,0.2,1.2,0.8,1.2c0,0,0.1,0,0.1,0c7.1,0,14.2,0,21.3,0c0.1,0,0.2,0,0.3,0c0.4-0.1,0.6-0.3,0.7-0.7c0,0,0,0,0-0.1
		C23.4,21.2,23.4,21.1,23.4,21z"/>
	<path d="M22.5,4.9c-0.2,0-0.5,0-0.6,0.2c-0.1,0.1-0.3,0.2-0.4,0.3c-0.4,0.3-0.8,0.6-1.3,0.9c-0.1,0.1-0.3,0.2-0.4,0.3
		c-0.3,0.3-0.6,0.3-1,0.1C18,6.4,17.2,6,16.5,5.7c-1-0.4-1.9-0.9-2.9-1.3c-0.8-0.4-1.7-0.8-2.5-1.2c-0.8-0.4-1.7-0.8-2.5-1.2
		C7.7,1.7,6.9,1.3,6.1,1C5.6,0.7,5.2,0.5,4.7,0.3C4.3,0.2,3.9,0.1,3.5,0C3.3,0,3,0,2.7,0C2,0,1.4,0.2,0.8,0.6
		C0.5,0.7,0.3,0.9,0.1,1.2c-0.1,0.1-0.1,0.2,0,0.3c0.2,0.2,0.4,0.4,0.6,0.5c0.5,0.4,1,0.7,1.5,1c0.7,0.4,1.4,0.8,2.1,1.1
		C5.1,4.5,6,4.9,6.8,5.3c0.1,0,0.1,0.1,0.2,0.2C7.1,6,7.4,6.4,7.6,6.9c0.4,0.8,0.7,1.6,1.1,2.4c0.2,0.5,0.5,1.1,0.7,1.6
		c0.4,0.8,0.7,1.6,1.1,2.4c0.2,0.4,0.3,0.7,0.6,1c0.2,0.3,0.4,0.5,0.7,0.7c0.2,0.1,0.4,0.2,0.6,0.3c0.1,0,0.2,0.1,0.2,0.1
		c0.1,0.1,0.2,0,0.2-0.1c0-0.1,0-0.2,0-0.3c-0.1-0.5-0.2-1-0.3-1.5c-0.1-0.8-0.3-1.6-0.4-2.3c-0.1-0.8-0.3-1.5-0.4-2.3
		c-0.1-0.4-0.1-0.8-0.2-1.2c0,0,0,0,0,0c0,0,0,0,0,0c0.6,0.3,1.3,0.6,1.9,0.9C14.2,8.7,15,9,15.8,9.3c0.7,0.3,1.4,0.5,2.2,0.7
		c0.4,0.1,0.9,0.2,1.3,0.2c0.5,0.1,1,0.1,1.5,0c0.2-0.1,0.5-0.2,0.6-0.3c0.1-0.1,0.2-0.3,0.3-0.4c0.4-0.9,0.8-1.8,1.2-2.8
		c0.2-0.3,0.3-0.7,0.5-1c0.2-0.3,0.1-0.6-0.3-0.7C22.9,4.9,22.7,4.9,22.5,4.9z"/>
	<path d="M11.8,2.5c0.2,0.1,0.3,0.1,0.5,0.2c0.5,0.2,1.1,0.5,1.6,0.7c0.4,0.2,0.9,0.4,1.3,0.6c0,0,0.1,0,0.1,0
		c1-0.6,1.9-1.2,2.9-1.8c0.1-0.1,0.3-0.2,0.4-0.3c0.1-0.1,0.1-0.1,0.2-0.2c0-0.1,0-0.2-0.1-0.2c-0.3-0.1-0.5-0.3-0.8-0.4
		C17.7,1,17.5,1,17.4,1c-0.4,0-0.8,0-1.1,0c-0.3,0.1-0.6,0.2-0.8,0.3C14.2,1.7,13,2,11.9,2.4C11.8,2.4,11.8,2.4,11.8,2.5z"/>
</g>
</svg>
