<?xml version="1.0" encoding="utf-8"?>
<!-- Generator: Adobe Illustrator 21.0.0, SVG Export Plug-In . SVG Version: 6.00 Build 0)  -->
<svg version="1.1" id="Layer_1" xmlns="http://www.w3.org/2000/svg" xmlns:xlink="http://www.w3.org/1999/xlink" x="0px" y="0px"
	 viewBox="0 0 48 14.5" style="enable-background:new 0 0 48 14.5;" xml:space="preserve">
<style type="text/css">
	.st0{fill:none;}
	.st1{fill:#FF9900;}
</style>
<g>
	<path class="st0" d="M37.4,1.6c-1.1,0-1.2,1.5-1.2,2.4s0,2.9,1.1,2.9c1.1,0,1.2-1.6,1.2-2.6c0-0.6,0-1.4-0.2-2
		C38.2,1.8,37.9,1.6,37.4,1.6z"/>
	<path class="st1" d="M29.4,10.6c-3.1,1.3-6.5,2-9.6,2c-4.6,0-9-1.2-12.6-3.3C6.8,9.1,6.6,9.4,6.9,9.7c3.3,3,7.7,4.8,12.6,4.8
		c3.5,0,7.5-1.1,10.3-3.1v0C30.2,11,29.8,10.5,29.4,10.6z"/>
	<path class="st1" d="M27.6,9.5c-0.3,0.2-0.2,0.4,0.1,0.4c0.9-0.1,2.9-0.4,3.3,0.1c0.4,0.5-0.4,2.3-0.7,3.2
		c-0.1,0.3,0.1,0.4,0.4,0.2c1.5-1.2,1.9-3.9,1.6-4.2C31.8,8.7,29.2,8.4,27.6,9.5z"/>
	<path d="M23.8,3.2c-0.9,0.1-2,0.2-2.8,0.5c-0.9,0.4-1.6,1.2-1.6,2.4c0,1.5,1,2.3,2.2,2.3c1,0,1.6-0.3,2.4-1.1
		c0.3,0.4,0.4,0.6,0.9,1c0.1,0.1,0.3,0.1,0.4,0l0,0c0.3-0.3,0.8-0.7,1.2-1c0.1-0.1,0.1-0.3,0-0.4C26.2,6.6,26,6.3,26,5.6V3.3
		c0-1,0.1-1.9-0.7-2.6C24.7,0.2,23.8,0,23.1,0c-1.4,0-3,0.5-3.3,2.3c0,0.2,0.1,0.3,0.2,0.3l1.4,0.2c0.1,0,0.2-0.1,0.3-0.3
		c0.1-0.6,0.6-0.9,1.2-0.9c0.3,0,0.6,0.1,0.8,0.4c0.2,0.3,0.2,0.7,0.2,1.1V3.2z M23.6,6.3C23.3,6.7,23,7,22.6,7
		c-0.6,0-0.9-0.4-0.9-1.1c0-1.3,1.1-1.5,2.2-1.5v0.3C23.8,5.3,23.9,5.8,23.6,6.3z"/>
	<path d="M8.5,8.4h1.5c0.2,0,0.3-0.1,0.3-0.3v-4c0-0.9,0-2.1,1-2.1c1,0,0.9,1.3,0.9,2.1v4c0,0.1,0.1,0.3,0.3,0.3h1.5
		c0.2,0,0.3-0.1,0.3-0.3v-4c0-0.4,0-1.1,0.1-1.5C14.5,2.2,14.9,2,15.2,2c0.4,0,0.8,0.2,0.9,0.7c0.1,0.3,0,1.1,0,1.4v4
		c0,0.1,0.1,0.3,0.3,0.3h1.5c0.2,0,0.3-0.1,0.3-0.3V3.3c0-0.8,0.1-1.8-0.4-2.4c-0.4-0.6-1.1-0.8-1.7-0.8c-0.9,0-1.7,0.5-2.1,1.4
		c-0.4-1-1-1.4-1.9-1.4c-0.9,0-1.6,0.5-2,1.4h0v-1c0-0.1-0.1-0.3-0.3-0.3H8.5c-0.2,0-0.3,0.1-0.3,0.3v7.6C8.2,8.3,8.3,8.4,8.5,8.4z"
		/>
	<path d="M33.1,6.3c-0.8-0.5-1.8-0.6-2.8-0.6l2.5-3.6c0.2-0.3,0.4-0.5,0.4-0.7V0.5c0-0.2-0.1-0.3-0.3-0.3H28c-0.2,0-0.3,0.1-0.3,0.3
		v1.1h0c0,0.2,0.1,0.3,0.3,0.3h2.5L27.6,6c-0.2,0.3-0.2,0.6-0.2,0.7v1.1c0,0.2,0.2,0.3,0.4,0.3c1.7-0.9,3.7-0.8,5.2,0
		c0.2,0.1,0.4-0.1,0.4-0.3V6.7C33.3,6.6,33.2,6.4,33.1,6.3z"/>
	<path d="M37.4,0.1L37.4,0.1c-2.2,0-3.4,1.9-3.3,4.2c0,2.4,1.2,4.2,3.3,4.2c2.1,0,3.4-1.9,3.4-4.2C40.8,2,39.6,0.1,37.4,0.1z
		 M37.4,7c-1.2,0-1.1-2-1.1-2.9s0.1-2.4,1.2-2.4c0.5,0,0.8,0.2,1,0.7c0.2,0.6,0.2,1.4,0.2,2C38.6,5.4,38.5,7,37.4,7z"/>
	<path d="M47.6,1c-0.4-0.7-1.1-0.9-1.7-0.9c-1,0-1.6,0.5-2,1.5h0V0.4c0-0.1-0.1-0.2-0.3-0.2h-1.4c-0.2,0-0.3,0.1-0.3,0.3v7.6
		c0,0.1,0.1,0.3,0.3,0.3h1.5l0,0c0.2,0,0.3-0.1,0.3-0.3V4c0-0.5,0-1,0.2-1.4c0.2-0.4,0.5-0.6,0.9-0.6c1,0,0.9,1.2,0.9,2.1v4.1
		c0,0.1,0.1,0.2,0.3,0.2h1.5c0.2,0,0.3-0.1,0.3-0.2V3.3C48,2.6,48,1.6,47.6,1z"/>
	<path d="M7,7.4C7.2,7.3,7.1,7.1,7,7C6.8,6.6,6.5,6.3,6.5,5.6V3.3c0-1,0.1-1.9-0.7-2.6C5.3,0.2,4.3,0,3.6,0c-1.4,0-3,0.5-3.3,2.3
		c0,0.2,0.1,0.3,0.2,0.3l1.4,0.2c0.1,0,0.2-0.1,0.3-0.3c0.1-0.6,0.6-0.9,1.2-0.9C3.7,1.6,4,1.7,4.2,2C4.4,2.3,4.4,2.7,4.4,3v0.2
		c-0.9,0.1-2,0.2-2.8,0.5C0.7,4.1,0,5,0,6.2c0,1.5,1,2.3,2.2,2.3c1,0,1.6-0.3,2.4-1.1C4.9,7.8,5,8,5.5,8.4c0.1,0.1,0.3,0.1,0.4,0v0
		C6.2,8.1,6.7,7.6,7,7.4z M4.1,6.3C3.9,6.7,3.5,7,3.1,7C2.5,7,2.2,6.6,2.2,5.9c0-1.3,1.1-1.5,2.2-1.5v0.3C4.4,5.3,4.4,5.8,4.1,6.3z"
		/>
</g>
</svg>
