<?xml version="1.0" encoding="utf-8"?>
<!-- Generator: Adobe Illustrator 21.0.0, SVG Export Plug-In . SVG Version: 6.00 Build 0)  -->
<svg version="1.1" id="Layer_1" xmlns="http://www.w3.org/2000/svg" xmlns:xlink="http://www.w3.org/1999/xlink" x="0px" y="0px"
	 viewBox="0 0 12.1 15.1" style="enable-background:new 0 0 12.1 15.1;" xml:space="preserve">
<g>
	<path d="M12.1,13.1l-0.9-9.8c0-0.2-0.2-0.4-0.4-0.4H9C9,1.3,7.7,0,6.1,0s-3,1.3-3,2.9H1.3c-0.2,0-0.4,0.2-0.4,0.4L0,13.1l0,0
		c0,1.1,1,2,2.3,2h7.6C11.1,15.1,12.1,14.2,12.1,13.1L12.1,13.1z M6.1,0.8c1.2,0,2.1,0.9,2.2,2.1H3.9C3.9,1.8,4.9,0.8,6.1,0.8z
		 M9.8,14.3H2.3c-0.8,0-1.4-0.5-1.4-1.2l0.8-9.4h1.4V5c0,0.2,0.2,0.4,0.4,0.4S3.9,5.2,3.9,5V3.8h4.3v1.3c0,0.2,0.2,0.4,0.4,0.4
		C8.9,5.5,9,5.3,9,5.1V3.8h1.4l0.8,9.4C11.3,13.8,10.6,14.3,9.8,14.3z"/>
</g>
</svg>
