<?xml version="1.0" encoding="utf-8"?>
<!-- Generator: Adobe Illustrator 21.0.0, SVG Export Plug-In . SVG Version: 6.00 Build 0)  -->
<svg version="1.1" id="Layer_1" xmlns="http://www.w3.org/2000/svg" xmlns:xlink="http://www.w3.org/1999/xlink" x="0px" y="0px"
	 viewBox="0 0 40 16" style="enable-background:new 0 0 40 16;" xml:space="preserve">
<style type="text/css">
	.st0{fill:#E53238;}
	.st1{fill:#0064D2;}
	.st2{fill:#F5AF02;}
	.st3{fill:#86B817;}
</style>
<path class="st0" d="M5.2,3.5C2.4,3.5,0,4.7,0,8.3C0,11.2,1.6,13,5.2,13c4.3,0,4.6-2.8,4.6-2.8H7.7c0,0-0.4,1.5-2.6,1.5
	c-1.8,0-3.1-1.2-3.1-2.9h8V7.7C10.1,6.1,9,3.5,5.2,3.5L5.2,3.5z M5.1,4.8c1.7,0,2.8,1,2.8,2.6H2.1C2.1,5.8,3.6,4.8,5.1,4.8z"/>
<path class="st1" d="M10.1,0v11.2c0,0.6,0,1.5,0,1.5h2c0,0,0.1-0.6,0.1-1.2c0,0,1,1.5,3.7,1.5c2.8,0,4.7-2,4.7-4.8
	c0-2.6-1.8-4.7-4.7-4.7C13,3.5,12.1,5,12.1,5V0H10.1z M15.2,4.9c1.9,0,3.1,1.4,3.1,3.3c0,2-1.4,3.4-3.1,3.4c-2,0-3.1-1.6-3.1-3.4
	C12.1,6.6,13.1,4.9,15.2,4.9L15.2,4.9z"/>
<path class="st2" d="M25.4,3.5c-4.2,0-4.5,2.3-4.5,2.7H23c0,0,0.1-1.4,2.3-1.4c1.4,0,2.5,0.6,2.5,1.9v0.4h-2.5c-3.3,0-5,1-5,2.9
	c0,1.9,1.6,3,3.8,3c3,0,3.9-1.6,3.9-1.6c0,0.7,0.1,1.3,0.1,1.3h1.9c0,0-0.1-0.8-0.1-1.3V7C29.8,4.1,27.5,3.5,25.4,3.5z M27.8,8.5V9
	c0,0.8-0.5,2.6-3.2,2.6c-1.5,0-2.2-0.8-2.2-1.6C22.4,8.5,24.5,8.5,27.8,8.5L27.8,8.5z"/>
<path class="st3" d="M28.7,3.9H31l3.4,6.8l3.4-6.8H40L33.8,16h-2.3l1.8-3.4L28.7,3.9L28.7,3.9z"/>
</svg>
