<?xml version="1.0" encoding="utf-8"?>
<!-- Generator: Adobe Illustrator 21.0.0, SVG Export Plug-In . SVG Version: 6.00 Build 0)  -->
<svg version="1.1" id="Layer_1" xmlns="http://www.w3.org/2000/svg" xmlns:xlink="http://www.w3.org/1999/xlink" x="0px" y="0px"
	 viewBox="0 0 17 23.6" style="enable-background:new 0 0 17 23.6;" xml:space="preserve">
<g>
	<path d="M16.5,5.7c-1.3-3.9-5.4-6.3-9.4-5.6C3,0.8,0,4.3,0,8.5c0,0.3,0,0.6,0.1,0.9c0.2,1.2,0.7,2.4,1.3,3.5
		c0.8,1.7,1.8,3.3,2.8,4.9c1.2,1.8,2.4,3.6,3.8,5.4c0.4,0.5,0.9,0.5,1.2,0c1.5-2,2.9-4,4.2-6.1c1.2-1.9,2.3-3.8,3.1-5.9
		C17.1,9.4,17.2,7.5,16.5,5.7z M8.5,15.1c-3.6,0-6.5-3-6.5-6.5C2,5.1,4.9,1.8,8.9,2c3.4,0.2,6.3,3.1,6.2,6.8
		C14.9,12.3,12,15.1,8.5,15.1z"/>
	<path d="M8.4,4.8c-2.1,0-3.6,1.8-3.6,3.7c0,1.9,1.5,3.7,3.7,3.7c2.3,0,3.8-1.9,3.7-3.8C12.2,6.4,10.5,4.8,8.4,4.8z"/>
</g>
</svg>
