<?xml version="1.0" encoding="utf-8"?>
<!-- Generator: Adobe Illustrator 21.0.0, SVG Export Plug-In . SVG Version: 6.00 Build 0)  -->
<svg version="1.1" id="Layer_1" xmlns="http://www.w3.org/2000/svg" xmlns:xlink="http://www.w3.org/1999/xlink" x="0px" y="0px"
	 viewBox="0 0 14.3 14.7" style="enable-background:new 0 0 14.3 14.7;" xml:space="preserve">
<g>
	<g>
		<path d="M14.2,14.3L10.1,10c1.1-1.1,1.7-2.5,1.7-4.1C11.8,2.6,9.1,0,5.9,0S0,2.6,0,5.8s2.6,5.8,5.9,5.8c1.4,0,2.7-0.5,3.8-1.3
			l4.2,4.3c0.1,0.1,0.1,0.1,0.2,0.1c0.1,0,0.1,0,0.2-0.1C14.3,14.5,14.3,14.4,14.2,14.3z M5.9,11.1c-2.9,0-5.3-2.4-5.3-5.3
			S3,0.6,5.9,0.6s5.3,2.4,5.3,5.3S8.8,11.1,5.9,11.1z"/>
	</g>
</g>
</svg>
