<?xml version="1.0" encoding="utf-8"?>
<!-- Generator: Adobe Illustrator 21.0.0, SVG Export Plug-In . SVG Version: 6.00 Build 0)  -->
<svg version="1.1" id="Layer_1" xmlns="http://www.w3.org/2000/svg" xmlns:xlink="http://www.w3.org/1999/xlink" x="0px" y="0px"
	 viewBox="0 0 4.4 3.7" style="enable-background:new 0 0 4.4 3.7;" xml:space="preserve">
<g id="jsqUaB.tif">
	<g>
		<path d="M4.4,2.3C4.4,2.3,4.4,2.3,4.4,2.3c0,0.1,0,0.2,0,0.2c0,0.2-0.1,0.4-0.2,0.5C4.1,3.3,4,3.4,3.9,3.6c0,0-0.1,0.1-0.1,0.1
			c0,0,0,0,0,0c0,0,0,0,0,0c0,0,0,0,0,0C3.7,3.5,3.6,3.3,3.4,3.1C3.3,2.9,3.1,2.8,2.9,2.7C2.7,2.6,2.6,2.6,2.4,2.6
			c-0.1,0-0.1,0-0.2,0c0,0,0,0,0,0c0.3,0,0.5-0.1,0.7-0.3C3.1,2,3.1,1.8,3.1,1.5C3,1,2.6,0.7,2.1,0.7c-0.5,0-0.8,0.4-0.8,0.8
			c0,0.5,0.4,0.9,0.9,0.9c0,0,0,0,0,0c-0.1,0-0.2,0-0.3,0C1.6,2.7,1.3,2.8,1.1,2.9C1,3.1,0.8,3.2,0.8,3.4c0,0.1-0.1,0.2-0.1,0.3
			c0,0,0,0,0,0C0.5,3.6,0.4,3.4,0.3,3.2C0.2,3.1,0.1,2.9,0.1,2.7c0-0.1,0-0.2,0-0.3c0,0,0-0.1,0-0.1c0,0,0,0,0,0c0-0.1,0-0.1,0-0.2
			c0,0,0,0,0,0C0,2,0,2,0,1.9c0-0.1,0-0.2,0.1-0.4c0-0.1,0.1-0.3,0.2-0.4C0.4,1,0.5,0.8,0.6,0.7c0.1-0.1,0.2-0.2,0.4-0.3
			c0.2-0.1,0.3-0.2,0.5-0.3C1.6,0.1,1.7,0,1.9,0C2,0,2,0,2.1,0c0,0,0,0,0,0c0,0,0.1,0,0.1,0c0,0,0,0,0,0c0.1,0,0.1,0,0.2,0
			c0.1,0,0.2,0,0.2,0c0.2,0,0.4,0.1,0.6,0.2c0.2,0.1,0.4,0.2,0.5,0.4C3.9,0.8,4,0.9,4,1c0.1,0.2,0.2,0.3,0.2,0.5
			c0,0.1,0.1,0.2,0.1,0.3c0,0.1,0,0.2,0,0.3c0,0,0,0,0,0C4.4,2.1,4.4,2.2,4.4,2.3z"/>
	</g>
</g>
</svg>
